<svg width="15" height="10" viewBox="0 0 15 10" fill="none" xmlns="http://www.w3.org/2000/svg">
<path d="M12.0038 1.28286C11.9972 1.27664 12.0136 1.29219 12.0038 1.28286C11.2227 0.685723 10.7449 0.47859 10.0063 0.332415C9.2775 0.18624 8.24412 -0.336257 8.00881 0.332415C8.00554 0.344855 8.01208 1.27042 8.00881 1.28286C9.23436 1.40105 10.1161 1.73258 11.005 2.23331C11.2371 2.36393 12.141 2.00938 12.0038 2.23331C11.9123 2.37949 11.1717 2.23331 11.005 2.23331C10.9201 2.23331 11.0835 2.27685 11.005 2.23331C10.005 1.66727 8.51668 1.28286 7.01007 1.28286C5.50346 1.28286 4.01515 1.66727 3.01511 2.23331C2.7798 2.36393 2.15363 2.45413 2.01636 2.23331C1.8791 2.00938 2.78307 2.36393 3.01511 2.23331C3.90404 1.73258 4.78578 1.40105 6.01133 1.28286C6.00806 1.27042 6.0146 0.344855 6.01133 0.332415C5.77602 -0.336257 4.74264 0.18624 4.01385 0.332415C3.27525 0.47859 2.79745 0.685723 2.01636 1.28286C2.00656 1.29219 2.0229 1.27664 2.01636 1.28286C1.29084 1.92354 0.0188825 4.97518 0.0188825 7.936C-0.0236032 7.86446 0.0188825 8.01686 0.0188825 7.936C0.816307 9.27023 2.24056 9.69072 3.01511 9.83689C2.92033 9.83689 3.10988 9.85555 3.01511 9.83689C3.47918 9.83689 3.73606 10.2039 4.01385 9.83689L5.01259 8.88644C3.3295 8.50701 2.06539 7.97643 2.01636 7.936C1.81047 7.76805 1.83989 8.13193 2.01636 7.936C2.19284 7.74006 2.80921 6.82071 3.01511 6.98555C3.04125 7.00732 4.18314 8.88644 7.01007 8.88644C9.85008 8.88644 10.992 6.99799 11.005 6.98555C11.2109 6.82071 11.8306 7.73695 12.0038 7.936C12.177 8.13193 12.2097 7.77116 12.0038 7.936C11.9548 7.97643 10.6906 8.50701 9.00755 8.88644L10.0063 9.83689C10.2841 10.2039 10.541 9.83689 11.005 9.83689C10.9103 9.85555 11.0998 9.83689 11.005 9.83689C11.7796 9.69072 13.2038 9.27023 14.0013 7.936C14.0437 7.86446 15 8.01686 15 7.936C15 4.97518 12.7293 1.92354 12.0038 1.28286ZM5.01259 6.98555C4.38837 6.98555 4.01385 6.71621 4.01385 6.0351C4.01385 5.35399 4.38837 4.13421 5.01259 4.13421C5.64007 4.13421 6.01133 5.35399 6.01133 6.0351C6.01133 6.71621 5.64007 6.98555 5.01259 6.98555ZM9.00755 6.98555C8.3768 6.98555 8.00881 6.72243 8.00881 6.0351C8.00881 5.34777 8.3768 4.13421 9.00755 4.13421C9.64157 4.13421 10.0063 5.34777 10.0063 6.0351C10.0063 6.72243 9.64157 6.98555 9.00755 6.98555Z" fill="#0075FF"/>
</svg>
