<svg width="14" height="12" viewBox="0 0 14 12" fill="none" xmlns="http://www.w3.org/2000/svg">
<path d="M1.45675 5.23288C5.86575 3.33838 11.1765 0.887646 11.9641 0.567956C14.03 -0.26879 14.1906 -0.3521 13.8745 1.50094C13.6475 2.83281 13.4413 7.15319 12.9193 9.8978C12.6095 11.5254 12.1017 12.4679 11.0089 11.7638C10.4834 11.4249 7.76371 9.36708 7.18803 8.96481C6.66251 8.59818 5.32386 7.96746 6.23282 7.09885C6.55626 6.78943 9.35691 4.90608 11.0089 3.36691C11.2253 3.16475 10.3034 3.20484 10.0537 3.36691C7.82707 4.80911 4.7153 6.83809 4.32239 7.09885C3.72882 7.49255 3.43528 7.38598 2.41197 7.09885C1.63878 6.88195 0.795522 6.26454 0.501542 6.16586C-0.630527 5.78621 0.357311 5.70539 1.45675 5.23288Z" fill="#0075FF"/>
</svg>
