<svg width="166" height="164" viewBox="0 0 166 164" fill="none" xmlns="http://www.w3.org/2000/svg">
<g filter="url(#filter0_d_1_6649)">
<rect x="25" y="16" width="114" height="114" rx="15" transform="rotate(-1 25 16)" fill="url(#paint0_linear_1_6649)"/>
<rect x="27.0346" y="17.9648" width="110" height="110" rx="13" transform="rotate(-1 27.0346 17.9648)" stroke="url(#paint1_linear_1_6649)" stroke-width="4" style="mix-blend-mode:overlay"/>
<path d="M90.0134 49.3141C89.9814 49.3079 90.0615 49.3235 90.0134 49.3141C86.4845 49.0177 82.8002 50.0276 80.3329 51.0366C77.8944 52.0262 76.3361 54.3404 77.0364 56.8654C77.0527 56.9102 77.0201 56.8207 77.0364 56.8654C80.8719 54.8081 84.7284 54.2397 88.3728 54.026C89.324 53.97 90.2518 54.1584 90.3151 55.1195C90.3508 55.7506 89.7045 56.7331 89.2163 57.0625C88.9674 57.2303 89.5365 57.0416 89.2163 57.0625C85.1106 57.2945 79.8091 58.6006 75.3958 61.5774C70.9825 64.5541 67.7856 68.9804 66.0324 72.7001C65.6146 73.5675 64.6802 73.4002 63.8193 72.9911C62.9519 72.5725 63.1248 71.6416 63.533 70.7807C65.0964 67.4817 67.0681 64.1189 70.4124 61.3334C70.377 61.3015 70.4479 61.3652 70.4124 61.3334C68.3336 59.7382 65.6041 60.316 63.7731 62.2063C61.9133 64.116 59.5968 67.1537 58.5496 70.5367C58.5403 70.5848 58.5559 70.5046 58.5496 70.5367C57.7558 73.944 60.5293 85.9739 66.682 95.0957C66.8501 95.3449 66.9661 95.7853 67.2392 95.9217C72.3477 98.4567 78.5024 96.0818 81.075 95.0017C81.3914 94.872 82.1825 95.4565 82.4602 95.2692C83.8196 94.3523 84.0497 92.2368 84.1007 90.5573L84.9287 89.9988C79.21 92.1553 74.9187 90.923 74.6911 90.8953C73.739 90.7847 72.6391 90.7542 72.7489 89.8018C72.8586 88.8495 74.2872 88.0253 75.2328 88.1264C75.3547 88.1418 81.6004 88.6385 89.8813 83.053C98.2004 77.4416 100.06 71.4359 100.073 71.3717C100.333 70.4571 101.636 69.4252 102.557 69.6962C103.471 69.9577 103.103 70.9921 102.843 71.9067C102.783 72.1281 102.318 76.5686 98.1766 81.063L99.0046 80.5045C100.581 81.0863 102.629 81.6655 103.988 80.7485C104.266 80.5613 104.02 79.6088 104.259 79.3641C106.224 77.3834 110.732 72.5664 110.295 66.8803C110.271 66.576 110.734 65.7449 110.566 65.4958C104.413 56.374 93.4701 49.8544 90.0134 49.3141ZM80.7425 82.0065C78.914 83.2398 76.0603 82.2089 74.6449 80.1105C73.2295 78.0121 73.8998 75.8059 75.7283 74.5726C77.5664 73.3328 79.8534 73.5442 81.2688 75.6426C82.6842 77.741 82.5806 80.7667 80.7425 82.0065ZM92.3344 74.1876C90.4868 75.4339 88.2222 75.2352 86.7939 73.1177C85.3656 71.0001 85.4726 68 87.3202 66.7538C89.1774 65.5011 91.9896 66.5322 93.4179 68.6497C94.8462 70.7673 94.1916 72.9349 92.3344 74.1876Z" fill="white" style="mix-blend-mode:overlay"/>
<path d="M89.8923 50.3075C86.5925 50.0397 83.0927 50.9884 80.7115 51.9622L80.709 51.9632C79.0761 52.6258 78.0298 53.9021 77.8876 55.3292C81.4645 53.7039 85.0156 53.2211 88.3143 53.0277M89.8923 50.3075L88.3728 54.026M89.8923 50.3075C90.5966 50.4255 91.798 50.8708 93.3592 51.6764C94.9186 52.4809 96.7608 53.6049 98.6938 54.9981C102.489 57.7336 106.578 61.4666 109.556 65.7894C109.549 65.8088 109.543 65.8299 109.535 65.8529C109.525 65.8823 109.513 65.9188 109.499 65.9592C109.465 66.0591 109.423 66.183 109.393 66.2832C109.369 66.3614 109.343 66.4561 109.324 66.5556C109.307 66.6466 109.285 66.793 109.298 66.9595L110.295 66.8803L89.8923 50.3075ZM88.3143 53.0277L88.3728 54.026M88.3143 53.0277C88.3142 53.0277 88.3141 53.0277 88.314 53.0277L88.3728 54.026M88.3143 53.0277C88.8418 52.9967 89.5053 53.0194 90.0847 53.2783C90.39 53.4146 90.6935 53.6262 90.9268 53.9463C91.1628 54.27 91.2863 54.6494 91.313 55.0538L91.3136 55.063L91.3135 55.063C91.3485 55.6815 91.0706 56.298 90.821 56.7165C90.6574 56.9906 90.4489 57.2745 90.2149 57.5163M88.3728 54.026C89.324 53.97 90.2518 54.1584 90.3151 55.1195C90.3341 55.4552 90.1602 55.8902 89.9197 56.2735C89.9275 56.2794 89.9353 56.2856 89.9431 56.2919C90.0628 56.3888 90.2057 56.5513 90.2762 56.7914C90.3478 57.0357 90.3147 57.2587 90.2557 57.4204C90.2431 57.4547 90.2293 57.4867 90.2149 57.5163M90.2149 57.5163C90.1662 57.6163 90.1103 57.6891 90.0713 57.7344C90.0179 57.7964 89.9665 57.841 89.9309 57.8693C89.8612 57.9249 89.7975 57.961 89.7607 57.9806C89.6838 58.0214 89.6114 58.049 89.5577 58.0668C89.5031 58.0849 89.4312 58.1051 89.3495 58.1182C89.3096 58.1245 89.2453 58.1329 89.1673 58.1326C89.1275 58.1325 89.0715 58.1302 89.0058 58.1197C88.9696 58.114 88.9213 58.1044 88.8654 58.0873C84.9582 58.3728 80.0436 59.6486 75.955 62.4064C71.723 65.2609 68.6316 69.5308 66.937 73.1265L66.9334 73.1342L66.9333 73.1341C66.7574 73.4995 66.5009 73.8049 66.1615 74.017C65.826 74.2267 65.4657 74.3104 65.1313 74.3235C64.4956 74.3485 63.8703 74.1225 63.3901 73.8944L63.3846 73.8917L63.3846 73.8917C63.0196 73.7155 62.7142 73.4589 62.5024 73.1188C62.293 72.7826 62.2105 72.4219 62.1984 72.0878C62.1755 71.4536 62.403 70.8299 62.6294 70.3524L89.2812 58.0603L89.2809 58.0604C89.2799 58.0604 89.2771 58.0606 89.2727 58.0607C89.2676 58.0608 89.2605 58.0609 89.2517 58.0608C89.236 58.0605 89.1859 58.0594 89.1186 58.0471C89.084 58.0408 89.0288 58.0287 88.9631 58.0046C88.9015 57.982 88.7956 57.9362 88.6846 57.8463C88.5678 57.7517 88.4267 57.5918 88.3571 57.3545C88.3342 57.2766 88.3222 57.201 88.3182 57.1289C88.6232 57.1011 88.9228 57.079 89.2163 57.0625C89.416 56.9277 89.6423 56.6836 89.8374 56.3989C89.8836 56.4422 89.9293 56.4934 89.9716 56.5537C90.1063 56.7461 90.1584 56.964 90.1505 57.163C90.1432 57.3446 90.088 57.4829 90.0484 57.5625C90.0074 57.6449 89.963 57.7047 89.9344 57.7399C89.8789 57.8083 89.8284 57.8504 89.8122 57.8636C89.791 57.8811 89.7767 57.8906 89.7754 57.8915C89.9282 57.7885 90.076 57.6598 90.2149 57.5163ZM58.4709 70.9911C58.7422 71.0504 59.0653 71.0221 59.4272 70.8083M58.4709 70.9911L59.5337 70.7151L59.533 70.7187L59.5329 70.719L59.5329 70.7192L59.5329 70.7193L59.5329 70.7194L59.5328 70.7194L59.5328 70.7194L59.5328 70.7196L59.5328 70.7196L59.5328 70.7198L59.5327 70.72C59.5327 70.72 59.5298 70.722 59.5241 70.7256C59.5241 70.7256 59.5241 70.7256 59.5241 70.7256L59.5156 70.724M58.4709 70.9911C58.4719 70.9831 58.4729 70.9752 58.4739 70.9673C58.8573 71.0265 59.2087 70.8911 59.3945 70.7982M58.4709 70.9911L58.5496 70.5367M59.4272 70.8083L59.5049 70.8324C59.5087 70.8203 59.5124 70.8082 59.5162 70.7961C59.5186 70.7851 59.5211 70.7743 59.5236 70.7636L59.5278 70.7454L59.528 70.7446C59.5205 70.7496 59.5131 70.7546 59.5056 70.7594C59.4793 70.7767 59.4532 70.793 59.4272 70.8083ZM59.4272 70.8083L59.3945 70.7982M59.3945 70.7982C59.4283 70.7813 59.4566 70.7658 59.4786 70.7531C59.4963 70.7429 59.5099 70.7346 59.5191 70.7288C59.518 70.7273 59.5168 70.7257 59.5156 70.724M59.3945 70.7982L58.5496 70.5367M59.5156 70.724L58.5556 70.5378L58.5496 70.5367M59.5156 70.724C59.5156 70.724 59.5156 70.724 59.5156 70.724C59.4514 70.6363 59.1498 70.2563 58.6826 70.1287L58.5496 70.5367M99.7579 80.7663C99.9892 80.4832 100.207 80.2013 100.413 79.9216C100.077 79.8236 99.7411 79.7093 99.4129 79.5892C99.3684 79.6477 99.3233 79.7063 99.2776 79.7649C99.1427 79.9381 99.0028 80.112 98.8575 80.2864C98.6424 80.5445 98.4156 80.8037 98.1766 81.063L99.0046 80.5045C99.2461 80.5936 99.4986 80.6827 99.7579 80.7663ZM88.1515 57.1446C84.2213 57.5271 79.4363 58.852 75.3958 61.5774C70.9825 64.5541 67.7856 68.9804 66.0324 72.7001L88.1515 57.1446ZM63.533 70.7807L62.6295 70.3522L63.533 70.7807ZM69.507 60.7896C69.2177 61.0382 68.9387 61.2909 68.6692 61.5472C69.0076 61.6462 69.334 61.7993 69.6403 62.0084C69.8659 61.8014 70.0982 61.5972 70.3376 61.396L70.4015 61.325C70.1143 61.1059 69.8148 60.9282 69.507 60.7896ZM67.6837 95.0259L67.2392 95.9217L67.6861 95.0271C67.7849 95.0765 67.8326 95.1346 67.839 95.1424C67.8399 95.1435 67.8403 95.1441 67.8403 95.1441C67.8404 95.144 67.8294 95.1287 67.8064 95.0857C67.7654 95.0661 67.7245 95.0462 67.6837 95.0259ZM82.3895 94.3123C82.3593 94.3056 82.2972 94.2847 82.152 94.2279C82.073 94.3099 81.9893 94.3806 81.901 94.4402C82.0622 94.3315 82.2145 94.3105 82.2891 94.3072C82.3607 94.304 82.4005 94.3148 82.3895 94.3123ZM83.0991 90.593C83.0875 90.9423 83.0676 91.2967 83.0326 91.6449C83.3691 91.5589 83.7122 91.4622 84.0613 91.3538C84.0809 91.082 84.0929 90.8146 84.1007 90.5573L84.9287 89.9988C84.5988 90.1233 84.2736 90.2364 83.9536 90.3392C83.7375 90.4086 83.5239 90.4732 83.3128 90.5334C83.2413 90.5537 83.17 90.5736 83.0991 90.593ZM74.5757 91.8886L74.6911 90.8953L74.5703 91.888C74.5697 91.8879 74.5692 91.8879 74.5687 91.8878C74.5711 91.8881 74.5734 91.8884 74.5757 91.8886ZM99.1102 71.1007C99.1099 71.1018 99.1094 71.1033 99.1088 71.1052L99.0991 71.1391L99.0909 71.1813C99.0974 71.1479 99.1056 71.1171 99.1102 71.1007ZM102.839 68.7369C102.838 68.7365 102.836 68.7361 102.835 68.7357C102.834 68.7354 102.833 68.7351 102.831 68.7347L102.557 69.6962L102.839 68.7369ZM103.805 72.1807C103.806 72.175 103.808 72.1693 103.81 72.1636C103.809 72.164 103.809 72.165 103.809 72.1665L102.843 71.9067L103.805 72.1807ZM103.138 80.0727C103.136 80.2286 103.132 80.294 103.127 80.3245C103.125 80.3356 103.13 80.2947 103.16 80.2295C103.191 80.1616 103.268 80.0282 103.429 79.9195C103.34 79.9791 103.244 80.0302 103.138 80.0727ZM73.8158 80.6697C74.6493 81.9054 75.9 82.8242 77.228 83.2584C78.5529 83.6916 80.0642 83.6702 81.3017 82.8355C82.5433 81.9981 83.1301 80.6053 83.2235 79.2135C83.317 77.8194 82.9305 76.3178 82.0979 75.0834C81.2522 73.8296 80.0961 73.078 78.8186 72.8689C77.5536 72.6618 76.2681 73.0023 75.1691 73.7436C74.0741 74.4822 73.2779 75.5465 72.9948 76.7963C72.7089 78.0587 72.969 79.4143 73.8158 80.6697ZM85.9649 73.6768C86.8148 74.9369 87.9674 75.6932 89.2465 75.9011C90.5125 76.1069 91.7942 75.7583 92.8936 75.0167C93.9971 74.2724 94.8014 73.2147 95.0837 71.963C95.3689 70.6989 95.0957 69.349 94.2469 68.0906C93.4104 66.8503 92.1696 65.924 90.842 65.4879C89.5141 65.0516 88.0079 65.0837 86.761 65.9247C85.5182 66.763 84.9251 68.148 84.8309 69.5415C84.7366 70.9357 85.1275 72.4353 85.9649 73.6768Z" stroke="url(#paint2_linear_1_6649)" stroke-width="2" style="mix-blend-mode:overlay"/>
</g>
<defs>
<filter id="filter0_d_1_6649" x="0" y="0.0102539" width="165.973" height="165.972" filterUnits="userSpaceOnUse" color-interpolation-filters="sRGB">
<feFlood flood-opacity="0" result="BackgroundImageFix"/>
<feColorMatrix in="SourceAlpha" type="matrix" values="0 0 0 0 0 0 0 0 0 0 0 0 0 0 0 0 0 0 127 0" result="hardAlpha"/>
<feOffset dy="11"/>
<feGaussianBlur stdDeviation="12.5"/>
<feComposite in2="hardAlpha" operator="out"/>
<feColorMatrix type="matrix" values="0 0 0 0 0 0 0 0 0 0 0 0 0 0 0 0 0 0 0.25 0"/>
<feBlend mode="normal" in2="BackgroundImageFix" result="effect1_dropShadow_1_6649"/>
<feBlend mode="normal" in="SourceGraphic" in2="effect1_dropShadow_1_6649" result="shape"/>
</filter>
<linearGradient id="paint0_linear_1_6649" x1="25" y1="16" x2="139" y2="130" gradientUnits="userSpaceOnUse">
<stop stop-color="#4305FF"/>
<stop offset="1" stop-color="#4DA1FF"/>
</linearGradient>
<linearGradient id="paint1_linear_1_6649" x1="82" y1="16" x2="82" y2="130" gradientUnits="userSpaceOnUse">
<stop stop-color="white"/>
<stop offset="1" stop-color="white" stop-opacity="0"/>
</linearGradient>
<linearGradient id="paint2_linear_1_6649" x1="72.3611" y1="56.2449" x2="93.6104" y2="87.7483" gradientUnits="userSpaceOnUse">
<stop stop-color="white" stop-opacity="0.7"/>
<stop offset="0.61035" stop-color="white" stop-opacity="0"/>
</linearGradient>
</defs>
</svg>
