<svg width="199" height="122" viewBox="0 0 199 122" fill="none" xmlns="http://www.w3.org/2000/svg">
<g filter="url(#filter0_d_1_6651)">
<rect x="180" y="6" width="114" height="114" rx="15" transform="rotate(131 180 6)" fill="url(#paint0_linear_1_6651)"/>
<rect x="177.178" y="6.1973" width="110" height="110" rx="13" transform="rotate(131 177.178 6.1973)" stroke="url(#paint1_linear_1_6651)" stroke-width="4" style="mix-blend-mode:overlay"/>
<path d="M111.741 32.0233C111.767 32.0037 111.701 32.0528 111.741 32.0233C114.322 29.5992 116.037 26.1855 116.938 23.6768C117.834 21.2024 117.157 18.4958 114.812 17.3267C114.768 17.3088 114.856 17.3445 114.812 17.3267C113.775 21.5537 111.617 24.7999 109.337 27.6512C108.742 28.3956 107.981 28.959 107.224 28.3629C106.732 27.9672 106.434 26.8294 106.516 26.2462C106.558 25.9489 106.317 26.4982 106.516 26.2462C109.091 23.0399 111.667 18.2261 112.408 12.9546C113.149 7.68304 111.999 2.34551 110.408 -1.44636C110.043 -2.33724 110.792 -2.91968 111.672 -3.28574C112.564 -3.6502 113.14 -2.89885 113.507 -2.0194C114.912 1.3499 116.092 5.06522 115.924 9.41448C115.972 9.40948 115.877 9.41948 115.924 9.41448C118.501 8.93699 119.898 6.52194 119.718 3.89633C119.543 1.23642 118.836 -2.5177 117.023 -5.5595C116.993 -5.59864 117.042 -5.53342 117.023 -5.5595C115.022 -8.42944 104.226 -14.4179 93.33 -15.9492C93.0324 -15.991 92.6275 -16.1995 92.3433 -16.0878C87.0412 -13.9877 84.6878 -7.8247 83.769 -5.1902C83.6537 -4.86824 82.69 -4.67146 82.6434 -4.33984C82.4152 -2.71607 83.8333 -1.12955 85.0473 0.0322294L84.9083 1.02125C87.1322 -4.67155 90.9195 -7.03603 91.0924 -7.18664C91.8117 -7.82019 92.5703 -8.61717 93.2046 -7.89834C93.8389 -7.17951 93.4955 -5.56643 92.7876 -4.93128C92.6946 -4.85106 88.1463 -0.541888 86.7562 9.34941C85.3596 19.2864 88.5783 24.6872 88.6177 24.7394C89.123 25.545 89.0183 27.2033 88.2007 27.7064C87.3945 28.2112 86.8718 27.2458 86.3664 26.4401C86.2417 26.2477 83.253 22.9309 82.6843 16.8456L82.5453 17.8346C81.0582 18.6168 79.2577 19.7509 79.0294 21.3747C78.9828 21.7063 79.855 22.1611 79.8771 22.5024C80.0341 25.2881 80.5976 31.8611 85.1154 35.3413C85.3578 35.5269 85.6655 36.4271 85.9631 36.469C96.8589 38.0003 109.026 34.2305 111.741 32.0233ZM93.6489 3.25822C93.9558 1.07413 96.6315 -0.356831 99.138 -0.00456473C101.644 0.347702 102.835 2.32208 102.528 4.50617C102.22 6.70169 100.532 8.25988 98.026 7.90761C95.5195 7.55534 93.3403 5.45374 93.6489 3.25822ZM91.7029 17.1045C92.0131 14.8976 93.676 13.3476 96.2054 13.7031C98.7348 14.0586 100.893 16.1455 100.582 18.3525C100.271 20.5709 97.6228 21.9707 95.0934 21.6153C92.564 21.2598 91.3911 19.3229 91.7029 17.1045Z" fill="white" style="mix-blend-mode:overlay"/>
<path d="M111.083 31.2686C113.49 28.9956 115.127 25.7599 115.997 23.3387L115.998 23.3362C116.598 21.6794 116.35 20.0478 115.384 18.9872C114.199 22.7329 112.181 25.6949 110.118 28.2757M111.083 31.2686L109.337 27.6512M111.083 31.2686C110.524 31.713 109.39 32.3078 107.746 32.9291C106.105 33.5496 104.037 34.1665 101.708 34.6707C97.1359 35.6607 91.6258 36.2014 86.4208 35.5219C86.4105 35.5043 86.3994 35.4851 86.3874 35.464C86.3721 35.4371 86.3533 35.4035 86.3325 35.3662C86.281 35.2741 86.2171 35.1599 86.1628 35.0704C86.1203 35.0007 86.0674 34.918 86.0062 34.8373C85.9502 34.7634 85.8562 34.649 85.7236 34.5474L85.1154 35.3413L111.083 31.2686ZM110.118 28.2757L109.337 27.6512M110.118 28.2757C110.118 28.2757 110.118 28.2756 110.118 28.2755L109.337 27.6512M110.118 28.2757C109.788 28.6885 109.327 29.1663 108.747 29.4238C108.441 29.5594 108.081 29.6434 107.687 29.6026C107.289 29.5613 106.924 29.3993 106.606 29.1484L106.598 29.1427L106.598 29.1427C106.115 28.7549 105.843 28.1358 105.699 27.6703C105.605 27.3653 105.534 27.0203 105.51 26.6847M109.337 27.6512C108.742 28.3956 107.981 28.959 107.224 28.3629C106.962 28.1525 106.755 27.7321 106.631 27.2969C106.622 27.2987 106.612 27.3004 106.602 27.302C106.45 27.3261 106.234 27.3236 106.008 27.2153C105.779 27.1051 105.635 26.9313 105.554 26.7792C105.537 26.7469 105.523 26.7152 105.51 26.6847M105.51 26.6847C105.469 26.5815 105.452 26.4914 105.444 26.4321C105.434 26.3509 105.435 26.2829 105.438 26.2374C105.443 26.1485 105.459 26.0769 105.469 26.0365C105.49 25.952 105.518 25.8798 105.541 25.828C105.564 25.7753 105.597 25.7084 105.642 25.6389C105.664 25.605 105.701 25.5515 105.753 25.4938C105.78 25.4643 105.819 25.4242 105.871 25.3824C105.899 25.3593 105.939 25.3298 105.989 25.2998C108.391 22.2051 110.732 17.6992 111.418 12.8154C112.129 7.76032 111.024 2.60596 109.486 -1.0594L109.482 -1.06724L109.482 -1.06725C109.329 -1.44248 109.273 -1.83743 109.343 -2.23159C109.411 -2.62123 109.59 -2.94499 109.804 -3.20228C110.211 -3.69141 110.798 -4.00489 111.288 -4.20906L111.294 -4.21141L111.294 -4.21139C111.669 -4.36476 112.064 -4.42001 112.459 -4.34985C112.849 -4.28048 113.172 -4.10042 113.428 -3.88583C113.915 -3.47845 114.226 -2.8921 114.43 -2.40441L105.731 25.6268L105.731 25.6266C105.732 25.6258 105.733 25.6236 105.736 25.6202C105.74 25.6164 105.744 25.6111 105.75 25.6046C105.761 25.593 105.795 25.5566 105.849 25.5148C105.877 25.4933 105.923 25.4604 105.985 25.4277C106.043 25.397 106.148 25.349 106.289 25.3266C106.438 25.3031 106.651 25.3053 106.874 25.4123C106.947 25.4475 107.011 25.4891 107.067 25.5344C106.884 25.7796 106.7 26.017 106.516 26.2462C106.482 26.4849 106.512 26.8164 106.593 27.1519C106.53 27.1572 106.462 27.1569 106.389 27.148C106.155 27.1194 105.959 27.0123 105.816 26.8732C105.686 26.7463 105.62 26.6128 105.587 26.53C105.554 26.4444 105.539 26.3715 105.532 26.3266C105.518 26.2396 105.521 26.1739 105.522 26.153C105.523 26.1256 105.525 26.1086 105.526 26.1071C105.5 26.2895 105.497 26.4855 105.51 26.6847ZM116.738 -5.92209C116.512 -5.76013 116.317 -5.50109 116.233 -5.08911M116.738 -5.92209L116.231 -4.94764L116.229 -4.95054L116.229 -4.95075L116.229 -4.95092L116.229 -4.951L116.229 -4.95108L116.229 -4.95112L116.229 -4.95113L116.229 -4.95125L116.229 -4.95129L116.229 -4.95143L116.229 -4.95157C116.228 -4.95159 116.229 -4.95512 116.23 -4.96178C116.23 -4.96178 116.23 -4.96179 116.23 -4.9618L116.237 -4.96702M116.738 -5.92209C116.743 -5.91602 116.748 -5.90997 116.753 -5.90393C116.453 -5.65857 116.318 -5.30685 116.263 -5.10666M116.738 -5.92209L117.023 -5.5595M116.233 -5.08911L116.164 -5.04744C116.17 -5.03657 116.177 -5.02569 116.183 -5.0148C116.19 -5.00566 116.196 -4.99658 116.202 -4.98758L116.213 -4.97225L116.213 -4.97159C116.215 -4.98049 116.216 -4.98933 116.217 -4.9981C116.222 -5.02924 116.228 -5.05957 116.233 -5.08911ZM116.233 -5.08911L116.263 -5.10666M116.263 -5.10666C116.253 -5.07024 116.245 -5.03883 116.24 -5.01399C116.236 -4.99403 116.233 -4.97831 116.231 -4.96764C116.233 -4.96744 116.235 -4.96723 116.237 -4.96702M116.263 -5.10666L117.023 -5.5595M116.237 -4.96702L117.018 -5.55585L117.023 -5.5595M116.237 -4.96702C116.237 -4.96701 116.237 -4.96701 116.237 -4.96701C116.345 -4.95607 116.829 -4.9259 117.237 -5.18774L117.023 -5.5595M81.8467 18.2193C81.9023 18.5806 81.9659 18.9313 82.0361 19.2714C82.3336 19.0873 82.6435 18.9141 82.9524 18.7505C82.9387 18.6783 82.9253 18.6056 82.9123 18.5323C82.8738 18.3162 82.8382 18.0958 82.8059 17.8712C82.758 17.5386 82.7171 17.1967 82.6843 16.8456L82.5453 17.8346C82.3175 17.9544 82.0824 18.0825 81.8467 18.2193ZM107.167 25.4C109.513 22.2234 111.73 17.7808 112.408 12.9546C113.149 7.68304 111.999 2.34551 110.408 -1.44636L107.167 25.4ZM113.507 -2.0194L114.43 -2.40416L113.507 -2.0194ZM116.934 9.10548C116.943 8.72417 116.942 8.3477 116.932 7.97593C116.632 8.16117 116.299 8.30128 115.939 8.389C115.942 8.69512 115.938 9.00441 115.928 9.31698L115.938 9.41195C116.293 9.34512 116.625 9.24145 116.934 9.10548ZM92.7116 -15.1581L92.3433 -16.0878L92.7091 -15.1571C92.6063 -15.1167 92.5312 -15.1201 92.5211 -15.1206C92.5197 -15.1207 92.519 -15.1208 92.519 -15.1208C92.519 -15.1206 92.5377 -15.1186 92.5851 -15.1069C92.6271 -15.1243 92.6692 -15.1413 92.7116 -15.1581ZM83.4018 -3.75207C83.427 -3.76998 83.4841 -3.80216 83.6234 -3.87209C83.6154 -3.98567 83.6188 -4.09515 83.6337 -4.20067C83.6066 -4.00808 83.5202 -3.8809 83.4728 -3.82326C83.4273 -3.76788 83.3926 -3.74556 83.4018 -3.75207ZM85.691 -0.735989C85.4392 -0.978331 85.1891 -1.23026 84.9538 -1.48926C84.7926 -1.18168 84.6348 -0.862036 84.4818 -0.530083C84.6706 -0.333611 84.8613 -0.145707 85.0473 0.0322294L84.9083 1.02125C85.0366 0.692776 85.1701 0.375381 85.3079 0.0688532C85.4009 -0.138135 85.4958 -0.340168 85.5923 -0.53731C85.625 -0.604099 85.6579 -0.670322 85.691 -0.735989ZM90.4314 -7.93706L91.0924 -7.18664L90.4355 -7.94066C90.436 -7.94106 90.4364 -7.94141 90.4367 -7.94172C90.4349 -7.94016 90.4332 -7.9386 90.4314 -7.93706ZM89.4631 24.2055C89.4625 24.2044 89.4617 24.2031 89.4607 24.2014L89.4419 24.1715L89.416 24.1372C89.4366 24.1644 89.454 24.1911 89.4631 24.2055ZM88.7247 28.5581C88.7259 28.5574 88.7271 28.5566 88.7284 28.5559C88.7293 28.5553 88.7303 28.5547 88.7313 28.554L88.2007 27.7064L88.7247 28.5581ZM85.5193 26.9715C85.5224 26.9764 85.5256 26.9815 85.5287 26.9866C85.5286 26.9861 85.528 26.9852 85.5272 26.9839L86.3664 26.4401L85.5193 26.9715ZM80.1005 21.1952C79.9858 21.0896 79.9398 21.0429 79.9205 21.0188C79.9135 21.01 79.9406 21.041 79.9691 21.1068C79.9988 21.1752 80.0468 21.3213 80.0197 21.5139C80.0345 21.4084 80.0614 21.3022 80.1005 21.1952ZM99.2771 -0.994833C97.8011 -1.20228 96.2815 -0.88761 95.0702 -0.191258C93.8617 0.503453 92.8663 1.64088 92.6586 3.11905C92.4502 4.60204 93.0926 5.97012 94.0644 6.97082C95.0378 7.97317 96.4123 8.69065 97.8868 8.89788C99.3845 9.10836 100.717 8.75213 101.727 7.9427C102.727 7.14114 103.334 5.95805 103.519 4.64534C103.703 3.33738 103.444 2.03348 102.705 0.986871C101.958 -0.0703274 100.777 -0.78408 99.2771 -0.994833ZM96.3446 12.7128C94.8395 12.5013 93.5061 12.8518 92.4958 13.6632C91.4957 14.4663 90.8972 15.652 90.7126 16.9653C90.5274 18.2834 90.7752 19.5889 91.5165 20.6362C92.2651 21.694 93.4511 22.3943 94.9542 22.6055C96.4357 22.8137 97.9543 22.5115 99.1667 21.8167C100.379 21.1218 101.363 19.981 101.573 18.4916C101.781 17.0071 101.149 15.6396 100.177 14.6372C99.2035 13.6342 97.8276 12.9212 96.3446 12.7128Z" stroke="url(#paint2_linear_1_6651)" stroke-width="2" style="mix-blend-mode:overlay"/>
</g>
<defs>
<filter id="filter0_d_1_6651" x="-5.82715" y="-82.7905" width="210.827" height="210.828" filterUnits="userSpaceOnUse" color-interpolation-filters="sRGB">
<feFlood flood-opacity="0" result="BackgroundImageFix"/>
<feColorMatrix in="SourceAlpha" type="matrix" values="0 0 0 0 0 0 0 0 0 0 0 0 0 0 0 0 0 0 127 0" result="hardAlpha"/>
<feOffset dy="11"/>
<feGaussianBlur stdDeviation="12.5"/>
<feComposite in2="hardAlpha" operator="out"/>
<feColorMatrix type="matrix" values="0 0 0 0 0 0 0 0 0 0 0 0 0 0 0 0 0 0 0.25 0"/>
<feBlend mode="normal" in2="BackgroundImageFix" result="effect1_dropShadow_1_6651"/>
<feBlend mode="normal" in="SourceGraphic" in2="effect1_dropShadow_1_6651" result="shape"/>
</filter>
<linearGradient id="paint0_linear_1_6651" x1="180" y1="6" x2="294" y2="120" gradientUnits="userSpaceOnUse">
<stop stop-color="#4305FF"/>
<stop offset="1" stop-color="#4DA1FF"/>
</linearGradient>
<linearGradient id="paint1_linear_1_6651" x1="237" y1="6" x2="237" y2="120" gradientUnits="userSpaceOnUse">
<stop stop-color="white"/>
<stop offset="1" stop-color="white" stop-opacity="0"/>
</linearGradient>
<linearGradient id="paint2_linear_1_6651" x1="118.402" y1="14.2675" x2="80.7716" y2="8.97892" gradientUnits="userSpaceOnUse">
<stop stop-color="white" stop-opacity="0.7"/>
<stop offset="0.61035" stop-color="white" stop-opacity="0"/>
</linearGradient>
</defs>
</svg>
