<svg width="113" height="85" viewBox="0 0 113 85" fill="none" xmlns="http://www.w3.org/2000/svg">
<g filter="url(#filter0_d_1_6639)">
<rect x="56" y="17" width="49" height="50" rx="10" transform="rotate(44 56 17)" fill="url(#paint0_linear_1_6639)"/>
<rect x="56.0247" y="18.414" width="47" height="48" rx="9" transform="rotate(44 56.0247 18.414)" stroke="url(#paint1_linear_1_6639)" stroke-width="2" style="mix-blend-mode:overlay"/>
<path d="M50.8912 45.5389C57.1238 47.8055 65.265 50.3516 66.3598 50.7757C69.2297 51.89 69.2452 52.6639 67.0989 54.2612C65.5565 55.4095 60.6049 59.1845 57.3727 61.499C55.4558 62.8714 54.9548 63.3303 54.5716 61.5657C54.3876 60.7168 53.2641 55.5563 53.0932 54.5946C52.9367 53.7173 52.7202 53.183 54.4782 53.1604C55.1041 53.152 59.7257 52.961 62.8817 52.9604C63.2957 52.9598 62.5809 52.3489 62.1736 52.2766C58.5456 51.6294 53.6929 50.4998 53.0465 50.392C52.0702 50.2289 51.6495 49.6116 50.9223 48.3407C50.3728 47.3804 49.6991 47.3548 49.5062 46.9731C48.763 45.5035 49.3369 44.9738 50.8912 45.5389Z" fill="#3409F0"/>
<path d="M66.8004 53.8602L66.8004 53.8601C67.329 53.4668 67.6894 53.1489 67.9044 52.8842C68.1221 52.6162 68.1282 52.4812 68.1181 52.4246C68.1061 52.3568 68.0378 52.2058 67.7055 51.9784C67.3821 51.7571 66.8858 51.5163 66.1788 51.2418L66.8004 53.8602ZM66.8004 53.8602C66.4016 54.157 65.7792 54.6263 65.0196 55.1989C62.8231 56.8548 59.4799 59.3752 57.0817 61.0925M66.8004 53.8602L53.5854 54.5068M53.5854 54.5068L53.5855 54.5072C53.7412 55.3838 54.708 59.837 55.0018 61.1905C55.0262 61.3029 55.046 61.3939 55.0602 61.4598C55.155 61.896 55.242 62.1091 55.3086 62.2027C55.3121 62.2075 55.3152 62.2116 55.3179 62.215C55.3181 62.215 55.3182 62.215 55.3184 62.2149C55.4102 62.2003 55.5859 62.1254 55.9088 61.9166C56.1603 61.7541 56.4555 61.542 56.8191 61.2808C56.9029 61.2207 56.9903 61.1579 57.0817 61.0925M53.5854 54.5068C53.5732 54.4385 53.5618 54.3773 53.5514 54.3215C53.5239 54.1747 53.5034 54.065 53.4945 53.9611C53.4863 53.8647 53.4945 53.8249 53.4977 53.8136C53.5098 53.8031 53.5474 53.7777 53.6411 53.7498C53.8002 53.7023 54.0625 53.6658 54.4847 53.6604L54.4849 53.6604M53.5854 54.5068L54.4849 53.6604M57.0817 61.0925L57.3727 61.499M57.0817 61.0925C57.0817 61.0925 57.0816 61.0925 57.0816 61.0925L57.3727 61.499M57.3727 61.499C57.284 61.5626 57.1983 61.6241 57.1155 61.6836C55.4097 62.9091 54.937 63.2486 54.5716 61.5657L65.3278 55.5927C63.1316 57.2484 59.7766 59.7776 57.3727 61.499ZM54.4849 53.6604C54.6601 53.658 55.1046 53.6431 55.7222 53.6225C57.4544 53.5645 60.5482 53.4609 62.8818 53.4604L62.8824 53.4604M54.4849 53.6604L62.8824 53.4604M62.8824 53.4604C62.9689 53.4603 63.1573 53.4492 63.3164 53.3098C63.5239 53.1279 63.5243 52.8821 63.487 52.738C63.4543 52.6121 63.387 52.5142 63.3417 52.456C63.2904 52.39 63.2309 52.3291 63.1721 52.2756C63.0544 52.1684 62.9098 52.0642 62.7627 51.9799C62.6218 51.8993 62.4436 51.8168 62.2614 51.7844C60.4568 51.4625 58.3439 51.0199 56.5974 50.6433C56.0012 50.5147 55.4442 50.393 54.9562 50.2865C54.0288 50.0839 53.3509 49.9358 53.1289 49.8988M62.8824 53.4604L53.1289 49.8988M53.1289 49.8988C52.7503 49.8356 52.4983 49.6941 52.2529 49.4367C51.9835 49.1543 51.7247 48.7363 51.3563 48.0923L51.3563 48.0923C51.0322 47.526 50.6626 47.2271 50.3578 47.0239C50.2742 46.9682 50.2169 46.9324 50.1692 46.9026C50.1162 46.8696 50.0751 46.844 50.0234 46.8068C49.9713 46.7693 49.9549 46.7502 49.9516 46.7459C49.7798 46.406 49.7051 46.1593 49.6877 45.9965C49.6779 45.9048 49.6876 45.8616 49.6936 45.8455C49.7098 45.8369 49.7658 45.8142 49.9015 45.8177C50.0877 45.8226 50.3584 45.8772 50.7203 46.0088C53.8442 47.1448 57.4437 48.35 60.3956 49.3231C61.2941 49.6193 62.1298 49.8931 62.8733 50.1367C64.5853 50.6976 65.8077 51.0981 66.1788 51.2418L53.1289 49.8988ZM53.4929 53.8186C53.4928 53.8185 53.4935 53.8174 53.4956 53.8154C53.4941 53.8177 53.493 53.8186 53.4929 53.8186ZM49.6976 45.8377C49.6978 45.8378 49.6971 45.8391 49.6953 45.8414C49.6966 45.8387 49.6975 45.8375 49.6976 45.8377ZM62.5552 53.0739C62.5551 53.0739 62.5541 53.0726 62.5524 53.0699C62.5544 53.0726 62.5553 53.0739 62.5552 53.0739Z" stroke="url(#paint2_linear_1_6639)"/>
</g>
<defs>
<filter id="filter0_d_1_6639" x="-3.7334" y="-4" width="119.981" height="120.005" filterUnits="userSpaceOnUse" color-interpolation-filters="sRGB">
<feFlood flood-opacity="0" result="BackgroundImageFix"/>
<feColorMatrix in="SourceAlpha" type="matrix" values="0 0 0 0 0 0 0 0 0 0 0 0 0 0 0 0 0 0 127 0" result="hardAlpha"/>
<feOffset dy="4"/>
<feGaussianBlur stdDeviation="12.5"/>
<feComposite in2="hardAlpha" operator="out"/>
<feColorMatrix type="matrix" values="0 0 0 0 0 0 0 0 0 0 0 0 0 0 0 0 0 0 0.25 0"/>
<feBlend mode="normal" in2="BackgroundImageFix" result="effect1_dropShadow_1_6639"/>
<feBlend mode="normal" in="SourceGraphic" in2="effect1_dropShadow_1_6639" result="shape"/>
</filter>
<linearGradient id="paint0_linear_1_6639" x1="56" y1="17" x2="105.99" y2="65.99" gradientUnits="userSpaceOnUse">
<stop stop-color="#0500FF"/>
<stop offset="1" stop-color="#7716D9"/>
</linearGradient>
<linearGradient id="paint1_linear_1_6639" x1="80.5" y1="17" x2="80.5" y2="67" gradientUnits="userSpaceOnUse">
<stop stop-color="white"/>
<stop offset="1" stop-color="white" stop-opacity="0"/>
</linearGradient>
<linearGradient id="paint2_linear_1_6639" x1="62.1619" y1="45.8883" x2="50.3527" y2="58.1171" gradientUnits="userSpaceOnUse">
<stop stop-color="white"/>
<stop offset="1" stop-color="white" stop-opacity="0"/>
</linearGradient>
</defs>
</svg>
