<svg width="113" height="76" viewBox="0 0 113 76" fill="none" xmlns="http://www.w3.org/2000/svg">
<g filter="url(#filter0_d_1_6641)">
<rect x="56" y="-19" width="49" height="50" rx="10" transform="rotate(44 56 -19)" fill="url(#paint0_linear_1_6641)"/>
<rect x="56.0247" y="-17.586" width="47" height="48" rx="9" transform="rotate(44 56.0247 -17.586)" stroke="url(#paint1_linear_1_6641)" stroke-width="2" style="mix-blend-mode:overlay"/>
<path d="M50.8912 9.53888C57.1238 11.8055 65.265 14.3516 66.3598 14.7757C69.2297 15.89 69.2452 16.6639 67.0989 18.2612C65.5565 19.4095 60.6049 23.1845 57.3727 25.499C55.4558 26.8714 54.9548 27.3303 54.5716 25.5657C54.3876 24.7168 53.2641 19.5563 53.0932 18.5946C52.9367 17.7173 52.7202 17.183 54.4782 17.1604C55.1041 17.152 59.7257 16.961 62.8817 16.9604C63.2957 16.9598 62.5809 16.3489 62.1736 16.2766C58.5456 15.6294 53.6929 14.4998 53.0465 14.392C52.0702 14.2289 51.6495 13.6116 50.9223 12.3407C50.3728 11.3804 49.6991 11.3548 49.5062 10.9731C48.763 9.50353 49.3369 8.97377 50.8912 9.53888Z" fill="#3409F0"/>
<path d="M66.8004 17.8602L66.8004 17.8601C67.329 17.4668 67.6894 17.1489 67.9044 16.8842C68.1221 16.6162 68.1282 16.4812 68.1181 16.4246C68.1061 16.3568 68.0378 16.2058 67.7055 15.9784C67.3821 15.7571 66.8858 15.5163 66.1788 15.2418L66.8004 17.8602ZM66.8004 17.8602C66.4016 18.157 65.7792 18.6263 65.0196 19.1989C62.8231 20.8548 59.4799 23.3752 57.0817 25.0925M66.8004 17.8602L53.5854 18.5068M53.5854 18.5068L53.5855 18.5072C53.7412 19.3838 54.708 23.837 55.0018 25.1905C55.0262 25.3029 55.046 25.3939 55.0602 25.4598C55.155 25.896 55.242 26.1091 55.3086 26.2027C55.3121 26.2075 55.3152 26.2116 55.3179 26.215C55.3181 26.215 55.3182 26.215 55.3184 26.2149C55.4102 26.2003 55.5859 26.1254 55.9088 25.9166C56.1603 25.7541 56.4555 25.542 56.8191 25.2808C56.9029 25.2207 56.9903 25.1579 57.0817 25.0925M53.5854 18.5068C53.5732 18.4385 53.5618 18.3773 53.5514 18.3215C53.5239 18.1747 53.5034 18.065 53.4945 17.9611C53.4863 17.8647 53.4945 17.8249 53.4977 17.8136C53.5098 17.8031 53.5474 17.7777 53.6411 17.7498C53.8002 17.7023 54.0625 17.6658 54.4847 17.6604L54.4849 17.6604M53.5854 18.5068L54.4849 17.6604M57.0817 25.0925L57.3727 25.499M57.0817 25.0925C57.0817 25.0925 57.0816 25.0925 57.0816 25.0925L57.3727 25.499M57.3727 25.499C57.284 25.5626 57.1983 25.6241 57.1155 25.6836C55.4097 26.9091 54.937 27.2486 54.5716 25.5657L65.3278 19.5927C63.1316 21.2484 59.7766 23.7776 57.3727 25.499ZM54.4849 17.6604C54.6601 17.658 55.1046 17.6431 55.7222 17.6225C57.4544 17.5645 60.5482 17.4609 62.8818 17.4604L62.8824 17.4604M54.4849 17.6604L62.8824 17.4604M62.8824 17.4604C62.9689 17.4603 63.1573 17.4492 63.3164 17.3098C63.5239 17.1279 63.5243 16.8821 63.487 16.738C63.4543 16.6121 63.387 16.5142 63.3417 16.456C63.2904 16.39 63.2309 16.3291 63.1721 16.2756C63.0544 16.1684 62.9098 16.0642 62.7627 15.9799C62.6218 15.8993 62.4436 15.8168 62.2614 15.7844C60.4568 15.4625 58.3439 15.0199 56.5974 14.6433C56.0012 14.5147 55.4442 14.393 54.9562 14.2865C54.0288 14.0839 53.3509 13.9358 53.1289 13.8988M62.8824 17.4604L53.1289 13.8988M53.1289 13.8988C52.7503 13.8356 52.4983 13.6941 52.2529 13.4367C51.9835 13.1543 51.7247 12.7363 51.3563 12.0923L51.3563 12.0923C51.0322 11.526 50.6626 11.2271 50.3578 11.0239C50.2742 10.9682 50.2169 10.9324 50.1692 10.9026C50.1162 10.8696 50.0751 10.844 50.0234 10.8068C49.9713 10.7693 49.9549 10.7502 49.9516 10.7459C49.7798 10.406 49.7051 10.1593 49.6877 9.99649C49.6779 9.90484 49.6876 9.86161 49.6936 9.8455C49.7098 9.83691 49.7658 9.81418 49.9015 9.81774C50.0877 9.82263 50.3584 9.8772 50.7203 10.0088C53.8442 11.1448 57.4437 12.35 60.3956 13.3231C61.2941 13.6193 62.1298 13.8931 62.8733 14.1367C64.5853 14.6976 65.8077 15.0981 66.1788 15.2418L53.1289 13.8988ZM53.4929 17.8186C53.4928 17.8185 53.4935 17.8174 53.4956 17.8154C53.4941 17.8177 53.493 17.8186 53.4929 17.8186ZM49.6976 9.83765C49.6978 9.83777 49.6971 9.83913 49.6953 9.84141C49.6966 9.83868 49.6975 9.83754 49.6976 9.83765ZM62.5552 17.0739C62.5551 17.0739 62.5541 17.0726 62.5524 17.0699C62.5544 17.0726 62.5553 17.0739 62.5552 17.0739Z" stroke="url(#paint2_linear_1_6641)"/>
</g>
<defs>
<filter id="filter0_d_1_6641" x="-3.7334" y="-40" width="119.981" height="120.005" filterUnits="userSpaceOnUse" color-interpolation-filters="sRGB">
<feFlood flood-opacity="0" result="BackgroundImageFix"/>
<feColorMatrix in="SourceAlpha" type="matrix" values="0 0 0 0 0 0 0 0 0 0 0 0 0 0 0 0 0 0 127 0" result="hardAlpha"/>
<feOffset dy="4"/>
<feGaussianBlur stdDeviation="12.5"/>
<feComposite in2="hardAlpha" operator="out"/>
<feColorMatrix type="matrix" values="0 0 0 0 0 0 0 0 0 0 0 0 0 0 0 0 0 0 0.25 0"/>
<feBlend mode="normal" in2="BackgroundImageFix" result="effect1_dropShadow_1_6641"/>
<feBlend mode="normal" in="SourceGraphic" in2="effect1_dropShadow_1_6641" result="shape"/>
</filter>
<linearGradient id="paint0_linear_1_6641" x1="56" y1="-19" x2="105.99" y2="29.99" gradientUnits="userSpaceOnUse">
<stop stop-color="#0500FF"/>
<stop offset="1" stop-color="#7716D9"/>
</linearGradient>
<linearGradient id="paint1_linear_1_6641" x1="80.5" y1="-19" x2="80.5" y2="31" gradientUnits="userSpaceOnUse">
<stop stop-color="white"/>
<stop offset="1" stop-color="white" stop-opacity="0"/>
</linearGradient>
<linearGradient id="paint2_linear_1_6641" x1="62.1619" y1="9.88832" x2="50.3527" y2="22.1171" gradientUnits="userSpaceOnUse">
<stop stop-color="white"/>
<stop offset="1" stop-color="white" stop-opacity="0"/>
</linearGradient>
</defs>
</svg>
