<svg width="100" height="46" viewBox="0 0 100 46" fill="none" xmlns="http://www.w3.org/2000/svg">
<g filter="url(#filter0_d_1_6516)">
<path d="M18.7293 17.591C19.2093 17.2302 19.7143 17.6855 19.7143 17.591V16.5993L18.7293 15.6075H17.7444C16.5296 15.5732 15.5031 14.6674 14.7895 14.6158H12.8196L14.7895 12.6324C15.0741 12.2715 15.0439 11.6068 15.7744 10.6489C16.505 9.69108 17.4598 9.02626 17.7444 8.66545L19.7143 6.68199V5.69026V4.69854L20.6993 2.71508C21.3406 1.66703 20.7672 1.79638 20.6993 1.72335C20.5209 1.72335 20.2112 1.22081 19.7143 1.72335C19.1452 2.29892 19.3919 3.56028 18.7293 4.69854C18.2494 5.52751 17.9143 5.50988 17.7444 5.69026C17.5745 5.87065 17.2563 6.48443 16.7594 6.68199C16.2582 6.89678 15.2822 7.14543 14.7895 7.67372C14.2968 8.20637 13.2409 9.63856 10.8496 12.6324C10.0808 13.5902 8.76122 14.5337 7.89474 15.6075C7.02831 16.6813 6.43451 17.9513 5.92481 18.5827C5.41512 19.2141 5.02902 19.4671 4.93985 19.5745C1.89448 23.3156 1 25.2714 1 25.5248C1.01699 25.7611 1.59803 26.7136 2.96993 27.5083L4.93985 28.5L11.8346 23.5414C12.8497 22.7854 13.5238 21.5025 14.7895 20.5662C16.0552 19.6298 17.0563 19.0939 17.7444 18.5827C18.4325 18.0673 18.6019 17.6812 18.7293 17.591ZM4.93985 21.5579C4.88463 21.5579 3.95489 21.6138 3.95489 21.5579C3.95489 21.5021 4.88463 21.5579 4.93985 21.5579C5.01205 21.5579 4.93985 21.5021 4.93985 21.5579C5.01205 21.5579 4.93985 21.6138 4.93985 21.5579ZM4.93985 21.5579C4.88463 21.5579 4.93985 21.6138 4.93985 21.5579C4.88463 21.5579 4.93985 21.5021 4.93985 21.5579C4.99508 21.5579 4.93985 21.5021 4.93985 21.5579C4.99508 21.5579 4.93985 21.6138 4.93985 21.5579ZM5.92481 19.5745C5.80165 19.6303 4.96959 19.6131 4.93985 19.5745C4.91437 19.54 5.85257 19.7548 5.92481 19.5745C5.99701 19.4284 5.81862 19.6088 5.92481 19.5745C6.01399 19.5916 5.92481 19.4284 5.92481 19.5745C6.08623 19.5015 5.92481 19.7205 5.92481 19.5745ZM12.8196 16.5993C12.7644 16.5649 12.8833 16.5735 12.8196 16.5993C12.8196 16.5349 12.8748 16.6551 12.8196 16.5993C12.8832 16.5735 12.8196 16.6637 12.8196 16.5993C12.8748 16.6337 12.7558 16.625 12.8196 16.5993C12.8196 16.6637 12.7643 16.5435 12.8196 16.5993C12.8196 16.5348 12.7559 16.625 12.8196 16.5993ZM8.8797 17.591C8.8797 17.4836 9.35966 17.591 8.8797 17.591C8.8797 17.6984 9.35966 17.591 8.8797 17.591C8.39975 17.591 7.89474 17.6984 7.89474 17.591C7.89474 17.4836 8.39975 17.591 8.8797 17.591ZM13.8045 19.5745C13.7493 19.5745 13.8045 19.6303 13.8045 19.5745C13.7493 19.5745 13.8045 19.5186 13.8045 19.5745C13.8597 19.5745 13.8045 19.5186 13.8045 19.5745C13.8597 19.5745 13.8045 19.6303 13.8045 19.5745ZM12.8196 19.5745C12.8918 19.5745 13.7493 19.4671 13.8045 19.5745C13.8767 19.5745 13.8767 19.6818 13.8045 19.5745C13.7875 19.5745 13.8257 19.6131 13.8045 19.5745C13.6431 19.3941 12.7474 19.5745 12.8196 19.5745ZM13.8045 19.5745C13.6431 19.5745 13.8045 19.7935 13.8045 19.5745C13.7918 19.6088 13.8045 19.4671 13.8045 19.5745C13.813 19.54 13.7663 19.5615 13.8045 19.5745C13.8385 19.583 13.7323 19.5186 13.8045 19.5745C13.9659 19.699 13.8045 19.4671 13.8045 19.5745C13.9659 19.5745 13.8045 19.6647 13.8045 19.5745ZM12.8196 18.5827C12.3396 18.9264 12.8196 19.4842 12.8196 19.5745C12.7643 19.5401 12.8196 19.6088 12.8196 19.5745C12.8196 19.4327 12.9979 19.6818 12.8196 19.5745C12.8196 19.7377 12.3527 19.5745 11.8346 19.5745C11.3886 19.5745 11.3041 20.287 10.8496 20.5662C10.3952 20.8454 9.86467 21.2873 9.86467 21.5579C9.85195 21.4849 9.86467 21.5923 9.86467 21.5579C9.87318 21.5493 9.87318 21.6309 9.86467 21.5579C9.8562 21.5665 9.89441 21.5193 9.86467 21.5579C9.83918 21.5923 9.92835 21.5579 9.86467 21.5579C9.49091 21.5579 8.80789 21.901 7.89474 22.5496C7.66112 22.7128 7.13488 22.3993 6.90978 22.5496C6.68467 22.7042 6.065 23.4597 5.92481 23.5414C5.78042 23.6229 5.92481 23.5585 5.92481 23.5414C5.92481 23.4511 6.49781 23.0393 6.90978 22.5496C7.35578 22.0256 7.89474 21.6481 7.89474 21.5579C7.89474 21.4849 7.40675 21.5579 6.90978 21.5579C6.41285 21.5579 5.92481 21.6653 5.92481 21.5579C5.92481 21.3947 6.17923 21.5923 6.90978 21.5579C7.58935 21.5235 8.65039 20.854 8.8797 20.5662H7.89474C7.12599 20.549 6.03526 19.8064 5.92481 19.5745C5.86964 19.4842 5.92481 19.626 5.92481 19.5745C5.92481 19.4499 6.49781 19.5745 6.90978 19.5745C6.999 19.5745 7.25337 19.5358 7.89474 19.5745H8.8797C9.66547 18.6724 10.4716 18.0592 10.8496 17.591H11.8346C12.442 17.664 13.3925 17.591 13.8045 17.591C13.8045 17.518 14.2505 17.591 13.8045 17.591C13.8045 17.6984 13.4269 18.1661 12.8196 18.5827ZM15.7744 19.5745C15.7022 19.6088 15.8297 19.626 15.7744 19.5745C15.6853 19.5916 15.7744 19.5186 15.7744 19.5745C15.8636 19.6088 15.8254 19.5229 15.7744 19.5745Z" fill="#6CA4F8"/>
<mask id="mask0_1_6516" style="mask-type:luminance" maskUnits="userSpaceOnUse" x="0" y="1" width="24" height="31">
<path d="M24 1.5H0V31.5H24V1.5Z" fill="white"/>
<path d="M18.7293 18.591C19.2093 18.2302 19.7143 18.6855 19.7143 18.591V17.5993L18.7293 16.6075H17.7444C16.5296 16.5732 15.5031 15.6674 14.7895 15.6158H12.8196L14.7895 13.6324C15.0741 13.2715 15.0439 12.6068 15.7744 11.6489C16.505 10.6911 17.4598 10.0263 17.7444 9.66545L19.7143 7.68199V6.69026V5.69854L20.6993 3.71508C21.3406 2.66703 20.7672 2.79638 20.6993 2.72335C20.5209 2.72335 20.2112 2.22081 19.7143 2.72335C19.1452 3.29892 19.3919 4.56028 18.7293 5.69854C18.2494 6.52751 17.9143 6.50988 17.7444 6.69026C17.5745 6.87065 17.2563 7.48443 16.7594 7.68199C16.2582 7.89678 15.2822 8.14543 14.7895 8.67372C14.2968 9.20637 13.2409 10.6386 10.8496 13.6324C10.0808 14.5902 8.76122 15.5337 7.89474 16.6075C7.02831 17.6813 6.43451 18.9513 5.92481 19.5827C5.41512 20.2141 5.02902 20.4671 4.93985 20.5745C1.89448 24.3156 1 26.2714 1 26.5248C1.01699 26.7611 1.59803 27.7136 2.96993 28.5083L4.93985 29.5L11.8346 24.5414C12.8497 23.7854 13.5238 22.5025 14.7895 21.5662C16.0552 20.6298 17.0563 20.0939 17.7444 19.5827C18.4325 19.0673 18.6019 18.6812 18.7293 18.591ZM4.93985 22.5579C4.88463 22.5579 3.95489 22.6138 3.95489 22.5579C3.95489 22.5021 4.88463 22.5579 4.93985 22.5579C5.01205 22.5579 4.93985 22.5021 4.93985 22.5579C5.01205 22.5579 4.93985 22.6138 4.93985 22.5579ZM4.93985 22.5579C4.88463 22.5579 4.93985 22.6138 4.93985 22.5579C4.88463 22.5579 4.93985 22.5021 4.93985 22.5579C4.99508 22.5579 4.93985 22.5021 4.93985 22.5579C4.99508 22.5579 4.93985 22.6138 4.93985 22.5579ZM5.92481 20.5745C5.80165 20.6303 4.96959 20.6131 4.93985 20.5745C4.91437 20.54 5.85257 20.7548 5.92481 20.5745C5.99701 20.4284 5.81862 20.6088 5.92481 20.5745C6.01399 20.5916 5.92481 20.4284 5.92481 20.5745C6.08623 20.5015 5.92481 20.7205 5.92481 20.5745ZM12.8196 17.5993C12.7644 17.5649 12.8833 17.5735 12.8196 17.5993C12.8196 17.5349 12.8748 17.6551 12.8196 17.5993C12.8832 17.5735 12.8196 17.6637 12.8196 17.5993C12.8748 17.6337 12.7558 17.625 12.8196 17.5993C12.8196 17.6637 12.7643 17.5435 12.8196 17.5993C12.8196 17.5348 12.7559 17.625 12.8196 17.5993ZM8.8797 18.591C8.8797 18.4836 9.35966 18.591 8.8797 18.591C8.8797 18.6984 9.35966 18.591 8.8797 18.591C8.39975 18.591 7.89474 18.6984 7.89474 18.591C7.89474 18.4836 8.39975 18.591 8.8797 18.591ZM13.8045 20.5745C13.7493 20.5745 13.8045 20.6303 13.8045 20.5745C13.7493 20.5745 13.8045 20.5186 13.8045 20.5745C13.8597 20.5745 13.8045 20.5186 13.8045 20.5745C13.8597 20.5745 13.8045 20.6303 13.8045 20.5745ZM12.8196 20.5745C12.8918 20.5745 13.7493 20.4671 13.8045 20.5745C13.8767 20.5745 13.8767 20.6818 13.8045 20.5745C13.7875 20.5745 13.8257 20.6131 13.8045 20.5745C13.6431 20.3941 12.7474 20.5745 12.8196 20.5745ZM13.8045 20.5745C13.6431 20.5745 13.8045 20.7935 13.8045 20.5745C13.7918 20.6088 13.8045 20.4671 13.8045 20.5745C13.813 20.54 13.7663 20.5615 13.8045 20.5745C13.8385 20.583 13.7323 20.5186 13.8045 20.5745C13.9659 20.699 13.8045 20.4671 13.8045 20.5745C13.9659 20.5745 13.8045 20.6647 13.8045 20.5745ZM12.8196 19.5827C12.3396 19.9264 12.8196 20.4842 12.8196 20.5745C12.7643 20.5401 12.8196 20.6088 12.8196 20.5745C12.8196 20.4327 12.9979 20.6818 12.8196 20.5745C12.8196 20.7377 12.3527 20.5745 11.8346 20.5745C11.3886 20.5745 11.3041 21.287 10.8496 21.5662C10.3952 21.8454 9.86467 22.2873 9.86467 22.5579C9.85195 22.4849 9.86467 22.5923 9.86467 22.5579C9.87318 22.5493 9.87318 22.6309 9.86467 22.5579C9.8562 22.5665 9.89441 22.5193 9.86467 22.5579C9.83918 22.5923 9.92835 22.5579 9.86467 22.5579C9.49091 22.5579 8.80789 22.901 7.89474 23.5496C7.66112 23.7128 7.13488 23.3993 6.90978 23.5496C6.68467 23.7042 6.065 24.4597 5.92481 24.5414C5.78042 24.6229 5.92481 24.5585 5.92481 24.5414C5.92481 24.4511 6.49781 24.0393 6.90978 23.5496C7.35578 23.0256 7.89474 22.6481 7.89474 22.5579C7.89474 22.4849 7.40675 22.5579 6.90978 22.5579C6.41285 22.5579 5.92481 22.6653 5.92481 22.5579C5.92481 22.3947 6.17923 22.5923 6.90978 22.5579C7.58935 22.5235 8.65039 21.854 8.8797 21.5662H7.89474C7.12599 21.549 6.03526 20.8064 5.92481 20.5745C5.86964 20.4842 5.92481 20.626 5.92481 20.5745C5.92481 20.4499 6.49781 20.5745 6.90978 20.5745C6.999 20.5745 7.25337 20.5358 7.89474 20.5745H8.8797C9.66547 19.6724 10.4716 19.0592 10.8496 18.591H11.8346C12.442 18.664 13.3925 18.591 13.8045 18.591C13.8045 18.518 14.2505 18.591 13.8045 18.591C13.8045 18.6984 13.4269 19.1661 12.8196 19.5827ZM15.7744 20.5745C15.7022 20.6088 15.8297 20.626 15.7744 20.5745C15.6853 20.5916 15.7744 20.5186 15.7744 20.5745C15.8636 20.6088 15.8254 20.5229 15.7744 20.5745Z" fill="black"/>
</mask>
<g mask="url(#mask0_1_6516)">
<path d="M18.7293 17.591C19.2093 17.2302 19.7143 17.6855 19.7143 17.591V16.5993L18.7293 15.6075H17.7444C16.5296 15.5732 15.5031 14.6674 14.7895 14.6158H12.8196L14.7895 12.6324C15.0741 12.2715 15.0439 11.6068 15.7744 10.6489C16.505 9.69109 17.4598 9.02626 17.7444 8.66545L19.7143 6.68199V5.69026V4.69854L20.6993 2.71508C21.3406 1.66703 20.7672 1.79638 20.6993 1.72335V1.72335C20.5209 1.72335 20.2112 1.22081 19.7143 1.72335C19.1452 2.29892 19.3919 3.56028 18.7293 4.69854C18.2494 5.52751 17.9143 5.50988 17.7444 5.69026C17.5745 5.87065 17.2563 6.48443 16.7594 6.68199C16.2582 6.89678 15.2822 7.14543 14.7895 7.67372C14.2968 8.20637 13.2409 9.63856 10.8496 12.6324C10.0808 13.5902 8.76122 14.5337 7.89474 15.6075C7.02831 16.6813 6.43451 17.9513 5.92481 18.5827C5.41512 19.2141 5.02902 19.4671 4.93985 19.5745C1.89448 23.3156 1 25.2714 1 25.5248C1.01699 25.7611 1.59803 26.7136 2.96993 27.5083L4.93985 28.5L11.8346 23.5414C12.8497 22.7854 13.5238 21.5025 14.7895 20.5662C16.0552 19.6298 17.0563 19.0939 17.7444 18.5827C18.4325 18.0673 18.6019 17.6812 18.7293 17.591V17.591ZM4.93985 21.5579C4.88463 21.5579 3.95489 21.6138 3.95489 21.5579C3.95489 21.502 4.88463 21.5579 4.93985 21.5579C5.01205 21.5579 4.93985 21.502 4.93985 21.5579C4.93985 21.6138 5.01205 21.5579 4.93985 21.5579ZM4.93985 21.5579C4.88463 21.5579 4.93985 21.6138 4.93985 21.5579C4.93985 21.502 4.88463 21.5579 4.93985 21.5579C4.99508 21.5579 4.93985 21.502 4.93985 21.5579C4.93985 21.6138 4.99508 21.5579 4.93985 21.5579ZM5.92481 19.5745C5.80165 19.6303 4.96959 19.6131 4.93985 19.5745C4.91437 19.54 5.85257 19.7548 5.92481 19.5745C5.99701 19.4284 5.81862 19.6088 5.92481 19.5745C6.01399 19.5916 5.92481 19.4284 5.92481 19.5745C5.92481 19.7205 6.08623 19.5015 5.92481 19.5745V19.5745ZM12.8196 16.5993C12.8833 16.5735 12.7644 16.5649 12.8196 16.5993C12.8748 16.6551 12.8196 16.5349 12.8196 16.5993C12.8196 16.6637 12.8832 16.5735 12.8196 16.5993C12.7558 16.625 12.8748 16.6337 12.8196 16.5993C12.7643 16.5435 12.8196 16.6637 12.8196 16.5993C12.8196 16.5348 12.7559 16.625 12.8196 16.5993ZM8.8797 17.591C9.35966 17.591 8.8797 17.4836 8.8797 17.591C8.8797 17.6984 9.35966 17.591 8.8797 17.591C8.39975 17.591 7.89474 17.6984 7.89474 17.591C7.89474 17.4836 8.39975 17.591 8.8797 17.591ZM13.8045 19.5745C13.7493 19.5745 13.8045 19.6303 13.8045 19.5745C13.8045 19.5186 13.7493 19.5745 13.8045 19.5745C13.8597 19.5745 13.8045 19.5186 13.8045 19.5745C13.8045 19.6303 13.8597 19.5745 13.8045 19.5745ZM12.8196 19.5745C12.8918 19.5745 13.7493 19.4671 13.8045 19.5745C13.8767 19.6818 13.8767 19.5745 13.8045 19.5745C13.7875 19.5745 13.8257 19.6131 13.8045 19.5745C13.6431 19.3941 12.7474 19.5745 12.8196 19.5745ZM13.8045 19.5745C13.6431 19.5745 13.8045 19.7935 13.8045 19.5745C13.8045 19.4671 13.7918 19.6088 13.8045 19.5745C13.813 19.54 13.7663 19.5615 13.8045 19.5745C13.8385 19.583 13.7323 19.5186 13.8045 19.5745C13.9659 19.699 13.8045 19.4671 13.8045 19.5745C13.8045 19.6647 13.9659 19.5745 13.8045 19.5745ZM12.8196 18.5827C12.3396 18.9264 12.8196 19.4842 12.8196 19.5745C12.8196 19.6088 12.7643 19.5401 12.8196 19.5745C12.9979 19.6818 12.8196 19.4327 12.8196 19.5745C12.8196 19.7377 12.3527 19.5745 11.8346 19.5745C11.3886 19.5745 11.3041 20.287 10.8496 20.5662C10.3952 20.8454 9.86467 21.2873 9.86467 21.5579C9.86467 21.5923 9.85195 21.4849 9.86467 21.5579C9.87318 21.6309 9.87318 21.5493 9.86467 21.5579C9.8562 21.5665 9.89441 21.5193 9.86467 21.5579C9.83918 21.5923 9.92835 21.5579 9.86467 21.5579V21.5579C9.49091 21.5579 8.80789 21.901 7.89474 22.5496C7.66112 22.7128 7.13488 22.3993 6.90978 22.5496C6.68467 22.7042 6.065 23.4597 5.92481 23.5414C5.78042 23.6229 5.92481 23.5585 5.92481 23.5414C5.92481 23.4511 6.49781 23.0393 6.90978 22.5496C7.35578 22.0256 7.89474 21.6481 7.89474 21.5579C7.89474 21.4849 7.40675 21.5579 6.90978 21.5579C6.41285 21.5579 5.92481 21.6653 5.92481 21.5579C5.92481 21.3947 6.17923 21.5923 6.90978 21.5579C7.58935 21.5235 8.65039 20.854 8.8797 20.5662V20.5662H7.89474C7.12599 20.549 6.03526 19.8064 5.92481 19.5745C5.86964 19.4842 5.92481 19.626 5.92481 19.5745C5.92481 19.4499 6.49781 19.5745 6.90978 19.5745C6.999 19.5745 7.25337 19.5358 7.89474 19.5745H8.8797C9.66547 18.6724 10.4716 18.0592 10.8496 17.591H11.8346C12.442 17.664 13.3925 17.591 13.8045 17.591C14.2505 17.591 13.8045 17.518 13.8045 17.591C13.8045 17.6984 13.4269 18.1661 12.8196 18.5827V18.5827ZM15.7744 19.5745C15.7022 19.6088 15.8297 19.626 15.7744 19.5745C15.7744 19.5186 15.6853 19.5916 15.7744 19.5745C15.8636 19.6088 15.8254 19.5229 15.7744 19.5745Z" stroke="white" stroke-width="3"/>
</g>
</g>
<g filter="url(#filter1_d_1_6516)">
<path d="M25.0437 28.5139C25.0437 28.5139 25.3647 26.5633 26.9823 23.5911C28.3158 21.1562 28.921 19.9599 28.921 19.6529C28.921 19.6358 28.9294 19.6827 28.921 19.6529C28.9127 19.6273 28.921 19.6699 28.921 19.6529C28.8165 19.2606 28.921 19.0436 28.921 18.6683C28.921 18.114 29.6605 17.1086 29.8904 16.6992C29.8904 16.7333 30.137 16.2344 29.8904 16.6992C29.8904 16.6438 30.0283 16.6992 29.8904 16.6992C29.7524 16.6992 28.4913 17.1626 26.9823 19.6529L25.0437 23.5911L23.105 24.5757C21.7172 25.4158 21.1663 25.6839 21.1663 25.5603C21.1663 25.4707 20.8695 25.2921 21.1663 24.5757C21.4839 23.8763 22.1356 23.0543 22.1356 22.6066C22.1356 22.2654 21.3794 22.6066 21.1663 22.6066C20.9739 22.6066 20.7236 22.3379 20.1969 22.6066C19.8124 22.8198 19.378 23.3566 19.2276 23.5911C19.0771 23.8257 18.7139 24.5027 18.2582 25.5603C17.6772 27.0101 18.2582 27.4569 18.2582 27.5294C18.346 27.5848 18.0994 28.4031 18.2582 28.5139C18.1328 28.4244 18.4171 28.6206 18.2582 28.5139L19.2276 29.4985L21.1663 27.5294C22.3408 26.6893 23.0507 26.5448 23.105 26.5448C23.1217 26.5448 23.1844 26.3018 23.105 26.5448C23.0255 26.7879 23.176 27.2607 23.105 27.5294V28.5139C23.105 28.6035 22.883 28.9271 24.0743 29.4985C24.1621 29.5326 24.8347 28.9787 25.0437 28.5139Z" fill="#6CA4F8"/>
<path d="M29.9442 16.5482C29.9456 16.5468 29.9459 16.5465 29.9442 16.5482V16.5482ZM24.0181 22.4871L22.0427 23.4769C21.8962 23.5643 22.1726 24.3905 22.0427 24.4667C22.2478 23.9276 22.0427 22.9415 22.0427 22.4871C22.0427 22.265 22.2026 21.7523 22.0427 21.4973C21.8467 21.1848 21.3905 21.4973 21.055 21.4973C20.8223 21.4973 20.266 21.4234 20.0673 21.4973C19.8495 21.5781 20.3477 21.3562 20.0673 21.4973V21.4973V21.4973C19.6238 21.7399 18.3363 22.1112 18.0919 22.4871C17.8986 22.7844 17.5586 23.4261 17.1042 24.4667V24.4667V24.4667C16.8076 25.197 17.254 26.0571 17.1042 26.4463C17.0296 26.6402 17.1446 27.321 17.1042 27.4362C17.0843 27.4929 17.1181 27.3896 17.1042 27.4362C17.0974 27.459 17.1113 27.4055 17.1042 27.4362V27.4362C17.1 27.454 17.1042 27.3469 17.1042 27.4362V27.4362V28.426V28.426V28.426V28.426C17.191 28.4801 16.9562 28.3241 17.1042 28.426V28.426V28.426C17.2554 28.5261 17.9658 28.3372 18.0919 28.426L19.0796 29.4158V29.4158V29.4158L21.055 28.426V28.426C21.1578 28.3534 21.9485 27.5023 22.0427 27.4362C22.0664 27.5655 22.0134 28.3796 22.0427 28.426C22.0869 28.4961 22.0119 28.3954 22.0427 28.426C22.1049 28.4877 21.9913 28.3902 22.0427 28.426C22.1506 28.5012 21.8839 28.3389 22.0427 28.426C22.3658 28.6031 23.4076 29.1269 24.0181 29.4158V29.4158V29.4158C24.3816 29.5552 24.8964 29.4973 25.0057 29.4158C25.1254 29.3266 24.9512 29.493 25.0057 29.4158C25.1187 29.256 24.8968 28.6636 25.0057 28.426V28.426V28.426C25.0313 28.3788 24.9544 28.5205 25.0057 28.426C25.1083 28.2371 25.7879 27.8127 25.9934 27.4362C26.4044 26.6833 27.1454 24.9695 27.9688 23.4769C28.6497 22.2502 28.6088 21.2114 28.9565 20.5074C29.1299 20.1565 29.8494 20.7422 29.9442 20.5074C29.9915 20.3904 29.914 19.6198 29.9442 19.5176C29.9702 19.4295 29.9442 19.6628 29.9442 19.5176C29.9442 19.4338 29.9563 19.5691 29.9442 19.5176V19.5176V19.5176C29.8523 19.1773 29.9442 18.8351 29.9442 18.5278C29.9442 18.0695 29.7831 16.8313 29.9442 16.5482V16.5482V16.5482C30.0715 16.3115 29.8767 16.6847 29.9442 16.5482C29.9775 16.4809 29.9216 16.6004 29.9442 16.5482C29.9551 16.5229 29.9321 16.5829 29.9442 16.5482C29.9502 16.531 29.9363 15.5902 29.9442 15.5584C29.9496 15.5369 29.9442 15.6496 29.9442 15.5584C29.9442 15.373 30.0697 15.7016 29.9442 15.5584C29.8315 15.4298 30.0298 15.5905 29.9442 15.5584C29.784 15.4982 30.0371 15.5584 29.9442 15.5584C29.7079 15.5584 28.9957 15.5314 28.9565 15.5584V15.5584C28.892 15.6026 28.9909 15.5243 28.9565 15.5584C28.8854 15.6288 29.0245 15.4718 28.9565 15.5584C28.817 15.736 28.182 16.231 27.9688 16.5482C27.54 17.1863 26.7633 18.2641 25.9934 19.5176V19.5176L24.0181 22.4871Z" stroke="white"/>
</g>
<g filter="url(#filter2_d_1_6516)">
<path d="M33.9926 20.5382C33.8881 20.5382 33.5501 20.4522 33.0237 20.5382C32.4973 20.6285 32.0924 20.5038 32.0549 20.5382C31.9839 20.6113 27.6661 30.3912 27.2107 31.4574C26.843 32.27 26.1169 33.6223 25.273 35.428C24.6588 36.7823 25.273 37.1983 25.273 37.4133C25.1476 37.5767 25.3607 37.4692 25.273 37.4133C26.1503 35.9688 26.5798 34.9383 27.2107 34.4353C27.6159 34.1301 27.9498 33.8339 28.1795 33.4427C28.4093 33.0558 28.5133 31.8749 29.1483 30.4647C29.4993 29.6866 33.9926 20.7188 33.9926 20.5382C34.0093 20.5382 33.9926 20.5038 33.9926 20.5382Z" fill="#6CA4F8"/>
<path d="M29.0087 30.4485H30.0048M29.0087 30.4485C29.3139 29.7909 32.9953 22.8142 33.9893 20.5288C34.0021 20.5269 33.9772 20.5304 33.9893 20.5288C34.1258 20.5098 33.9707 20.5305 33.9893 20.5288C33.9946 20.5282 33.9908 20.5288 33.9893 20.5288H34.9854C35.0292 20.4258 34.9576 20.598 34.9854 20.5288C35.0031 20.4847 34.9721 19.5741 34.9854 19.5368C34.9918 19.5189 34.9775 19.564 34.9854 19.5368C34.987 19.5313 34.9833 19.5447 34.9854 19.5368H32.9932C32.8838 19.5535 33.1264 19.5156 32.9932 19.5368V19.5368C32.7179 19.5827 32.1592 19.5012 31.9971 19.5368C31.9174 19.5542 32.0636 19.5168 31.9971 19.5368C31.9644 19.5466 32.041 19.5186 31.9971 19.5368V19.5368C31.9702 19.5479 32.0961 19.4487 31.9971 19.5368V19.5368V19.5368C31.9563 19.5775 32.0053 19.5254 31.9971 19.5368C31.9852 19.5532 32.0023 19.5285 31.9971 19.5368C31.9865 19.5534 32.0015 19.5288 31.9971 19.5368C31.9875 19.5537 32.0039 19.5236 31.9971 19.5368C31.9826 19.5646 31.0204 19.497 31.0009 19.5368C30.9614 19.6174 31.0676 20.3884 31.0009 20.5288C30.8673 20.8102 31.2238 21.0437 31.0009 21.5207C30.5551 22.4752 29.6129 23.1899 29.0087 24.4967C27.8077 27.094 26.2658 29.8909 26.0203 30.4485C25.644 31.2569 25.8891 32.6177 25.0242 34.4164V34.4164V34.4164C24.7066 35.0973 24.1935 35.9904 24.0281 36.4004C23.9457 36.6047 24.0756 36.2507 24.0281 36.4004C23.9891 36.5233 24.0281 37.2159 24.0281 37.3924V37.3924V38.3844C24.326 38.5688 24.7852 38.5051 25.0242 38.3844C25.2188 38.2861 24.9367 37.5033 25.0242 37.3924V37.3924V37.3924C25.9152 35.9666 26.4758 34.8383 27.0165 34.4164C27.4986 34.0619 27.7246 33.9006 28.0126 33.4245C28.2753 32.994 29.3592 31.842 30.0048 30.4485M29.0087 30.4485C28.3558 31.8577 28.2488 33.0378 28.0126 33.4245L29.0087 30.4485ZM30.0048 30.4485C30.0048 30.4486 30.0049 30.4484 30.0048 30.4485ZM24.0281 36.4004C24.0281 36.4004 24.0267 36.4018 24.0281 36.4004C24.0279 36.4006 24.0282 36.4002 24.0281 36.4004C24.027 36.4016 24.0281 36.4004 24.0281 36.4004Z" stroke="white"/>
</g>
<g filter="url(#filter3_d_1_6516)">
<path d="M46.9926 20.5382C46.8881 20.5382 46.5501 20.4522 46.0237 20.5382C45.4973 20.6285 45.0924 20.5038 45.0549 20.5382C44.9838 20.6113 40.666 30.3912 40.2106 31.4574C39.843 32.27 39.1169 33.6223 38.2729 35.428C37.6588 36.7823 38.2729 37.1983 38.2729 37.4133C38.1476 37.5767 38.3607 37.4692 38.2729 37.4133C39.1503 35.9688 39.5798 34.9383 40.2106 34.4353C40.6159 34.1301 40.9497 33.8339 41.1795 33.4427C41.4093 33.0558 41.5133 31.8749 42.1483 30.4647C42.4993 29.6866 46.9926 20.7188 46.9926 20.5382C47.0093 20.5382 46.9926 20.5038 46.9926 20.5382Z" fill="#6CA4F8"/>
<path d="M42.0087 30.4485H43.0048M42.0087 30.4485C42.3139 29.7909 45.9954 22.8142 46.9893 20.5288C47.0021 20.5269 46.9772 20.5304 46.9893 20.5288C47.1258 20.5098 46.9707 20.5305 46.9893 20.5288C46.9946 20.5282 46.9908 20.5288 46.9893 20.5288H47.9854C48.0292 20.4258 47.9576 20.598 47.9854 20.5288C48.0031 20.4847 47.9721 19.5741 47.9854 19.5368C47.9918 19.5189 47.9776 19.564 47.9854 19.5368C47.987 19.5313 47.9834 19.5447 47.9854 19.5368H45.9932C45.8838 19.5535 46.1265 19.5156 45.9932 19.5368V19.5368C45.7179 19.5827 45.1592 19.5012 44.9971 19.5368C44.9174 19.5542 45.0636 19.5168 44.9971 19.5368C44.9644 19.5466 45.041 19.5186 44.9971 19.5368V19.5368C44.9702 19.5479 45.0961 19.4487 44.9971 19.5368V19.5368V19.5368C44.9564 19.5775 45.0053 19.5254 44.9971 19.5368C44.9852 19.5532 45.0024 19.5285 44.9971 19.5368C44.9865 19.5534 45.0015 19.5288 44.9971 19.5368C44.9875 19.5537 45.0039 19.5236 44.9971 19.5368C44.9827 19.5646 44.0204 19.497 44.001 19.5368C43.9615 19.6174 44.0676 20.3884 44.001 20.5288C43.8673 20.8102 44.2238 21.0437 44.001 21.5207C43.5552 22.4752 42.6129 23.1899 42.0087 24.4967C40.8077 27.094 39.2659 29.8909 39.0204 30.4485C38.644 31.2569 38.8892 32.6177 38.0242 34.4164V34.4164V34.4164C37.7066 35.0973 37.1935 35.9904 37.0281 36.4004C36.9457 36.6047 37.0756 36.2507 37.0281 36.4004C36.9891 36.5233 37.0281 37.2159 37.0281 37.3924V37.3924V38.3844C37.326 38.5688 37.7852 38.5051 38.0242 38.3844C38.2189 38.2861 37.9368 37.5033 38.0242 37.3924V37.3924V37.3924C38.9152 35.9666 39.4758 34.8383 40.0165 34.4164C40.4986 34.0619 40.7246 33.9006 41.0126 33.4245C41.2753 32.994 42.3592 31.842 43.0048 30.4485M42.0087 30.4485C41.3558 31.8577 41.2489 33.0378 41.0126 33.4245L42.0087 30.4485ZM43.0048 30.4485C43.0048 30.4486 43.0049 30.4484 43.0048 30.4485ZM37.0281 36.4004C37.0281 36.4004 37.0267 36.4018 37.0281 36.4004C37.028 36.4006 37.0283 36.4002 37.0281 36.4004C37.027 36.4016 37.0281 36.4004 37.0281 36.4004Z" stroke="white"/>
</g>
<g filter="url(#filter4_d_1_6516)">
<path d="M40.0882 19.5092C40.0542 19.329 39.8757 18.8231 40.0882 18.5184C40.1435 18.557 40.3389 18.158 40.0882 18.5184C39.7653 18.5184 39.3668 18.4626 38.1176 18.5184C36.8685 18.5742 36.1852 18.5184 36.147 18.5184C36.113 18.4841 35.8963 18.1413 36.147 17.5277C36.3807 16.9312 36.8986 16.5926 37.1323 16.5369C37.1663 16.5369 37.7008 16.6184 39.1029 16.5369C40.505 16.4553 41.6505 15.6362 43.0441 15.5461C44.4377 15.456 44.9977 15.5633 45.0147 15.5461C45.087 15.4731 44.9467 15.096 45.0147 14.5553H46H45.0147C44.5856 14.5553 44.0677 14.4309 44.0294 14.5553C44.0124 14.6626 43.0496 14.4438 40.0882 14.5553C37.199 14.6454 35.2679 14.448 35.1617 14.5553C35.0173 14.7012 34.7118 15.507 34.1764 16.5369C33.6751 17.4723 33.1911 18.4283 33.1911 18.5184C33.1911 18.5914 34.0362 18.4669 34.1764 18.5184C34.1764 18.5013 34.2826 18.5528 34.1764 18.5184C34.1934 18.5528 33.4588 18.5399 33.1911 18.5184C32.8682 18.5184 32.6435 18.3854 32.2058 18.5184C31.7682 18.6515 32.2058 19.4019 32.2058 19.5092C31.7427 19.5092 32.2058 19.6165 32.2058 19.5092C32.5457 19.5264 33.1911 19.4878 33.1911 19.5092C33.1911 19.5092 33.2506 19.5006 33.1911 19.5092C33.1274 19.5178 32.2611 19.4921 32.2058 19.5092V20.5H36.147C38.3606 20.427 39.9098 19.6337 40.0882 19.5092C40.2327 19.4019 40.1604 19.6508 40.0882 19.5092ZM34.1764 19.5092C33.9257 19.5435 33.4206 19.5435 33.1911 19.5092C33.1189 19.5092 33.1911 19.5264 33.1911 19.5092C33.2081 19.4749 33.8918 19.5092 34.1764 19.5092C34.3549 19.5264 34.3167 19.4877 34.1764 19.5092Z" fill="#6CA4F8"/>
<path d="M38.9873 20.4639C38.8226 20.4849 39.2044 20.4462 38.9873 20.4639C38.3664 20.5146 37.125 20.4274 36.0042 20.4639V20.4639H33.021H32.0266V20.4639V19.4762H31.0322V19.4762C31.0229 19.4703 31.0415 19.4826 31.0322 19.4762C30.9321 19.4072 31.1039 19.6417 31.0322 19.4762V18.4885V18.4885C31.0756 18.305 30.9593 18.565 31.0322 18.4885C31.13 18.3859 30.9449 17.5492 31.0322 17.5007C31.2097 17.4022 31.7877 17.5725 32.0266 17.5007C32.271 17.4274 32.7903 17.5408 33.021 17.5007C33.0285 17.4813 33.0134 17.5191 33.021 17.5007C33.0605 17.4055 32.9557 17.6343 33.021 17.5007C33.1525 17.2323 32.7672 15.9932 33.021 15.5253C33.2921 15.0103 33.8376 14.8421 34.0154 14.5376C34.1742 14.2656 34.8583 14.6887 35.0098 14.5376C35.1306 14.417 34.9716 13.5641 35.0098 13.5498C35.0697 13.5275 34.9648 13.5601 35.0098 13.5498C35.1014 13.5289 34.8992 13.5638 35.0098 13.5498C35.2346 13.5214 35.6214 13.5747 36.0042 13.5498C36.7728 13.4998 38.5227 13.5948 39.9817 13.5498C41.4731 13.4943 42.2263 13.6029 42.9648 13.5498C43.3279 13.5237 43.7938 13.5726 43.9592 13.5498C44.1145 13.4261 43.8665 13.5749 43.9592 13.5498C44.168 13.4935 44.7136 13.5498 44.9536 13.5498H45.948V13.5498V13.5498V14.5376C45.9124 14.8161 45.992 15.3387 45.948 15.5253C45.9261 15.6182 45.9822 15.4365 45.948 15.5253C45.9217 15.5934 46.0772 15.3963 45.948 15.5253H44.9536C44.9365 15.5424 44.3713 15.4354 42.9648 15.5253C41.5584 15.6151 40.4023 15.444 38.9873 15.5253C37.5722 15.6065 37.0329 15.5253 36.9985 15.5253L38.9873 20.4639ZM38.9873 20.4639V20.4639H39.9817C40.0106 20.4575 39.9544 20.4713 39.9817 20.4639C40.0498 20.4456 39.8515 20.5536 39.9817 20.4639V20.4639V20.4639C40.1401 20.3477 39.9082 19.7386 39.9817 19.4762C40.0309 19.3006 40.0193 19.625 39.9817 19.4762C40.0035 19.4287 40.909 18.5835 40.9761 18.4885V18.4885C41.107 18.3026 40.9017 18.6377 40.9761 18.4885C41.01 18.4205 40.9526 17.6302 40.9761 17.5007C40.9906 17.4208 41.3651 17.7694 40.9761 17.5007H39.9817V17.5007V17.5007C39.6366 17.5007 39.2498 17.4453 37.9929 17.5007C37.637 17.5165 37.2565 17.4898 36.9985 17.5007C37.0958 17.2624 36.9357 16.6012 36.9985 16.513L38.9873 20.4639ZM34.0154 18.4885V18.4885C34.016 18.4999 34.0154 18.4767 34.0154 18.4885V18.4885V18.4885ZM34.0154 18.4885C33.944 18.4885 33.0759 18.486 33.021 18.4885C33.0212 18.4957 33.021 18.4811 33.021 18.4885V18.4885H34.0154V18.4885ZM39.9817 19.4762C39.9816 19.4762 39.9813 19.4777 39.9817 19.4762M39.9817 17.5007C39.9817 17.5007 39.9834 17.4971 39.9817 17.5007M36.9985 16.513C37.001 16.5106 36.9985 16.5129 36.9985 16.513M32.0266 18.4885C32.0199 18.4869 32.0199 18.4865 32.0266 18.4885C32.0263 18.4884 32.0269 18.4885 32.0266 18.4885Z" stroke="white"/>
</g>
<g filter="url(#filter5_d_1_6516)">
<path d="M46.1911 18.5184C45.8682 18.5184 45.6435 18.3854 45.2058 18.5184C44.7682 18.6515 45.2058 19.4019 45.2058 19.5092C44.7427 19.5092 45.2058 19.6165 45.2058 19.5092C45.5457 19.5264 46.1911 19.4877 46.1911 19.5092C46.1911 19.5092 46.2506 19.5006 46.1911 19.5092C46.1274 19.5178 45.2611 19.4921 45.2058 19.5092V20.5H49.147C51.3606 20.427 52.9098 19.6337 53.0882 19.5092C53.1604 19.6508 53.2327 19.402 53.0882 19.5092C53.0543 19.329 52.8759 18.8231 53.0882 18.5184C53.1432 18.557 53.3388 18.158 53.0882 18.5184C52.7654 18.5184 52.3665 18.4626 51.1176 18.5184C49.8683 18.5742 49.1853 18.5184 49.147 18.5184C49.1131 18.4841 48.8964 18.1413 49.147 17.5277C49.3804 16.9312 49.8984 16.5926 50.1323 16.5369C50.1663 16.5369 50.701 16.6184 52.1029 16.5369C53.5053 16.4553 54.6503 15.6362 56.0441 15.5461C57.4379 15.456 57.9975 15.5633 58.0147 15.5461C58.0869 15.4731 57.9468 15.096 58.0147 14.5553H59H58.0147C57.5852 14.5553 57.0677 14.4309 57.0294 14.5553C57.0122 14.6626 56.0494 14.4438 53.0882 14.5553C50.1988 14.6454 48.2679 14.448 48.1617 14.5553C48.0173 14.7012 47.7118 15.507 47.1764 16.5369C46.6751 17.4723 46.1911 18.4283 46.1911 18.5184C46.1911 18.5914 47.0362 18.4669 47.1764 18.5184C47.1764 18.5013 47.2826 18.5528 47.1764 18.5184C47.1935 18.5528 46.4588 18.5399 46.1911 18.5184ZM47.1764 19.5092C47.3166 19.4878 47.3549 19.5264 47.1764 19.5092C46.9258 19.5435 46.4206 19.5435 46.1911 19.5092C46.1189 19.5092 46.1911 19.5264 46.1911 19.5092C46.2081 19.4749 46.8918 19.5092 47.1764 19.5092Z" fill="#6CA4F8"/>
<path d="M47.0154 18.4885V19.4762H46.021V18.4885C46.021 18.4812 46.0212 18.4956 46.021 18.4885C46.077 18.4858 46.9422 18.4885 47.0154 18.4885ZM47.0154 18.4885V19.4762V19.4762C47.0154 19.4644 47.016 18.4999 47.0154 18.4885V18.4885ZM52.9818 19.4762C52.9818 19.4762 52.9818 19.4777 52.9818 19.4762M49.9986 16.513C49.9986 16.5131 50.001 16.511 49.9986 16.513M44.0323 18.4885C43.9593 18.5649 44.0757 18.3049 44.0323 18.4885V18.4885V19.4762C44.1039 19.6417 43.9321 19.4072 44.0323 19.4762C44.0415 19.4825 44.023 19.4703 44.0323 19.4762V19.4762H45.0267V20.4639V20.4639H46.021H49.0042V20.4639C50.1251 20.4274 51.3666 20.5145 51.9874 20.4639C52.2968 20.4387 51.787 20.4961 51.9874 20.4639C52.0873 20.4479 52.8934 20.4878 52.9818 20.4639C53.0498 20.4455 52.8514 20.5536 52.9818 20.4639V20.4639V20.4639C53.1401 20.3477 52.9079 19.7385 52.9818 19.4762C53.0305 19.3019 53.0184 19.6242 52.9818 19.4762C53.0025 19.4287 53.9052 18.5888 53.9761 18.4885V18.4885C54.107 18.3025 53.9018 18.6377 53.9761 18.4885C54.0104 18.4205 53.9525 17.6302 53.9761 17.5007C53.9906 17.4208 54.3652 17.7694 53.9761 17.5007H52.9818V17.5007V17.5007C52.6366 17.5007 52.25 17.4453 50.993 17.5007C50.6372 17.5165 50.2568 17.4897 49.9986 17.5007C50.0961 17.2623 49.9358 16.6012 49.9986 16.513C50.3283 16.4961 51.0031 16.5696 51.9874 16.513C53.4041 16.4317 54.5569 16.603 55.9649 16.513C56.6692 16.468 57.5931 16.5406 57.9537 16.513C58.1333 16.4992 57.8543 16.5229 57.9537 16.513C58.002 16.5082 57.9151 16.5184 57.9537 16.513C57.9711 16.5106 57.9223 16.5195 57.9537 16.513C57.9677 16.51 58.9119 16.5248 58.9481 16.513C58.9664 16.5072 58.909 16.5313 58.9481 16.513C58.9756 16.5001 58.8602 15.6128 58.9481 15.5253C59.077 15.3963 58.922 15.5934 58.9481 15.5253C58.9824 15.4365 58.9264 15.6182 58.9481 15.5253C58.992 15.3387 58.9128 14.8161 58.9481 14.5376V13.5498V13.5498V13.5498H57.9537C57.7133 13.5498 57.1683 13.4935 56.9593 13.5498C56.8666 13.5749 57.1147 13.4261 56.9593 13.5498C56.7937 13.5726 56.3279 13.5237 55.9649 13.5498C55.2264 13.6029 54.4733 13.4943 52.9818 13.5498C51.523 13.5948 49.7732 13.4998 49.0042 13.5498C48.6214 13.5747 48.2343 13.5214 48.0098 13.5498C47.8993 13.5638 48.1015 13.5289 48.0098 13.5498C47.9649 13.5601 48.0697 13.5275 48.0098 13.5498V13.5498C47.9717 13.5641 48.1307 14.417 48.0098 14.5376C47.8583 14.6887 47.1742 14.2656 47.0154 14.5376C46.8377 14.8421 46.2921 15.0103 46.021 15.5253C45.7672 15.9932 46.1525 17.2323 46.021 17.5007C45.9557 17.6343 46.0605 17.4055 46.021 17.5007C46.0129 17.5203 46.029 17.4799 46.021 17.5007C45.7894 17.5407 45.2721 17.427 45.0267 17.5007C44.7878 17.5725 44.2098 17.4023 44.0323 17.5007C43.945 17.5492 44.1301 18.3859 44.0323 18.4885ZM52.9818 17.5007C52.9822 17.5007 52.9832 17.4972 52.9818 17.5007C52.9832 17.4973 52.9818 17.5008 52.9818 17.5007ZM45.0267 18.4885C45.0264 18.4884 45.0269 18.4885 45.0267 18.4885C45.0199 18.4869 45.0199 18.4865 45.0267 18.4885Z" stroke="white"/>
</g>
<g filter="url(#filter6_d_1_6516)">
<path d="M65.0111 21.6369C64.58 21.3288 64.1839 21.6369 64.0221 21.6369C63.8771 21.6707 63.5704 21.4765 63.0332 21.6369C62.2612 21.9196 59.8076 22.7537 56.1106 24.5598C52.4131 26.3659 51.1659 27.394 51.1659 27.4827C51.0761 27.4827 51.1659 27.6261 51.1659 27.4827C50.9316 27.3223 51.2384 27.4827 51.1659 27.4827C51.2557 27.5544 52.1548 28.44 52.1548 28.4569C52.1716 28.4907 51.4727 27.6261 51.1659 27.4827C50.8971 27.3603 50.3392 27.4827 50.1769 27.4827C49.9811 27.4827 50.5351 27.3434 50.1769 27.4827C49.6566 27.6937 48.647 28.4569 48.1991 28.4569C47.7512 28.4569 48.1991 28.2966 48.1991 28.4569C48.0582 28.3683 48.1991 28.5118 48.1991 28.4569C49.0944 28.9 49.5332 29.2203 50.1769 29.4312C50.3392 29.503 50.8971 29.5409 51.1659 29.4312C51.3618 29.3426 52.6349 29.5578 56.1106 29.4312C60.2641 29.2878 62.4619 28.5287 63.0332 28.4569C63.4086 28.4021 63.8214 28.6342 64.0221 28.4569C64.2905 28.1911 65.0111 27.7105 65.0111 27.4827C65.0111 27.3391 65.1344 27.4827 65.0111 27.4827C64.8488 27.4827 64.3975 27.7654 64.0221 27.4827C63.6981 27.2716 63.1782 26.5084 63.0332 26.5084C62.9991 26.5084 63.1398 26.4704 63.0332 26.5084C62.9093 26.5801 62.3774 27.4194 61.0553 27.4827C59.7293 27.546 58.2426 27.4827 57.0995 27.4827C56.0592 27.4827 55.1217 27.5544 55.1217 27.4827C55.1217 27.4278 56.4634 25.9397 59.0774 24.5598C61.4782 23.2854 62.7091 22.6112 63.0332 22.6112C63.2122 22.6112 64.3418 22.8264 65.0111 22.6112C65.6851 22.4002 66 22.7378 66 22.6112C66 22.5058 65.4422 21.945 65.0111 21.6369Z" fill="#6CA4F8"/>
<path d="M50.0461 26.4595C50.0876 26.4095 50.0249 26.4777 50.0461 26.4595C50.0944 26.4185 50.0085 26.4841 50.0461 26.4595C50.1258 26.407 50.9201 26.5272 51.0408 26.4595C51.2856 26.3218 51.568 25.7169 52.0354 25.4767C52.9722 24.995 54.1537 24.4225 56.0141 23.511C59.7141 21.698 62.1554 20.8642 62.9767 20.5625V20.5625V20.5625C63.5074 20.4036 63.7981 20.6029 63.9714 20.5625V20.5625V20.5625C64.2428 20.5625 64.8038 20.4771 64.9661 20.5625V20.5625V20.5625C65.1954 20.7267 65.8154 21.4029 65.9607 21.5453C66.0327 21.6156 65.8965 21.4501 65.9607 21.5453C66.0124 21.622 65.9607 21.3056 65.9607 21.5453C65.9607 21.8865 66.0491 22.4496 65.9607 22.5281C65.8516 22.6251 66.0689 22.4735 65.9607 22.5281C65.7391 22.6402 65.3156 23.4012 64.9661 23.511C64.6228 23.6217 64.2061 23.452 63.9714 23.511C63.758 23.5646 63.1675 23.511 62.9767 23.511V23.511C62.9724 23.5121 62.9825 23.5094 62.9767 23.511C62.9338 23.5228 63.0704 23.4753 62.9767 23.511C62.7899 23.5822 62.3172 23.3531 61.9821 23.511C61.3133 23.8258 60.2023 24.8356 58.9981 25.4767V25.4767C58.3313 25.8297 58.4993 26.1934 58.0034 26.4595C58.8595 26.4474 59.0411 26.5051 59.9927 26.4595M50.0461 26.4595H59.9927M50.0461 26.4595C49.7569 26.4929 49.3552 26.3411 49.0515 26.4595V26.4595V26.4595C48.5889 26.6475 48.3871 27.4424 48.0568 27.4424C47.811 27.4424 47.2979 27.3521 47.0621 27.4424C46.9368 27.4904 47.191 27.2893 47.0621 27.4424C46.9223 27.6084 47.0621 28.2289 47.0621 28.4252C47.0621 28.7525 46.9961 28.3607 47.0621 28.4252C47.1525 28.5135 46.9771 29.3544 47.0621 29.4081V29.4081V29.4081C47.9681 29.8576 49.3595 30.1631 50.0461 30.3909C50.4474 30.5521 50.7105 30.5197 51.0408 30.3909C51.0471 30.3898 51.0311 30.3924 51.0408 30.3909C51.0973 30.3822 50.9186 30.4026 51.0408 30.3909C51.2827 30.3677 51.5767 29.4348 52.0354 29.4081C52.9509 29.3548 54.2681 29.4718 56.0141 29.4081C60.1666 29.2642 62.3587 29.4858 62.9767 29.4081V29.4081V29.4081C63.4379 29.3405 64.6228 28.7298 64.9661 28.4252V28.4252V28.4252C65.2872 28.1065 64.9661 27.9519 64.9661 27.4424C64.9661 27.2819 65.1626 26.6779 64.9661 26.4595C64.7782 26.2513 64.1587 26.4724 63.9714 26.4595C63.9598 26.4543 63.9936 26.4713 63.9714 26.4595C63.884 26.4129 64.1447 26.5905 63.9714 26.4595V26.4595V26.4595C63.7947 26.3442 63.1385 26.5346 62.9767 26.4595C62.8309 26.3917 63.2119 25.4767 62.9767 25.4767C62.8662 25.4767 62.0323 25.464 61.9821 25.4767C61.9174 25.4929 62.0516 25.452 61.9821 25.4767V25.4767C61.9715 25.4787 62.0009 26.4565 61.9821 26.4595C61.899 26.4728 62.1578 26.4436 61.9821 26.4595C61.6325 26.4911 60.6547 26.4278 59.9927 26.4595M62.9767 23.511C62.9767 23.511 62.9782 23.5108 62.9767 23.511M61.9821 25.4767C61.9816 25.4769 61.9835 25.4764 61.9821 25.4767C61.9898 25.4744 61.9884 25.4751 61.9821 25.4767ZM63.9714 28.4252C63.9704 28.4252 63.9724 28.4252 63.9714 28.4252V28.4252ZM51.0408 30.3909C51.0408 30.3909 51.0379 30.3915 51.0408 30.3909C51.0384 30.3916 51.0413 30.391 51.0408 30.3909Z" stroke="white"/>
</g>
<g filter="url(#filter7_d_1_6516)">
<path d="M76 20.5782C75.7932 20.4023 75.6597 20.5782 75 20.5782C74.7243 20.5782 74.0519 20.5224 74 20.5782C73.9311 20.6597 73.2631 20.5224 72 20.5782C70.9432 20.621 69.7413 20.5095 69 20.5782C69.2068 20.6596 69.6034 20.5782 70 20.5782C69.8233 20.591 70.2762 20.5782 70 20.5782H72V21.5684C71.8748 21.5041 72.1379 21.7871 72 21.5684C72.1252 21.6284 72.5728 21.4998 73 21.5684C73.6296 21.6799 74 22.5286 74 22.5587C74 22.7517 74.2718 22.8493 74 24.5392C73.7243 26.229 73.0432 27.467 73 27.5099C72.9311 27.5785 72.5218 27.5099 72 27.5099C71.5214 27.5099 71.1641 27.5656 71 27.5099C70.8364 27.4541 71.2845 27.5099 71 27.5099C70.8359 27.5099 70.0816 27.4971 70 27.5099C69.6981 27.5528 70.0476 27.4628 70 27.5099C69.9524 27.5571 70.0131 28.2514 70 28.5002H71H72C71.8233 28.5002 71.3752 28.4701 71 28.5002C70.6204 28.5259 70.1942 28.5002 70 28.5002V29.4904H73C75.3976 29.4347 76.9311 29.529 77 29.4904C77.0563 29.4647 77 28.7061 77 28.5002C77 28.2943 77.2456 28.5559 77 28.5002C76.767 28.4444 76 28.6074 76 28.5002C76 28.4744 76.9699 27.6428 77 27.5099C76.7801 27.5356 76.4354 27.4842 76 27.5099C75.5684 27.5356 75.2068 27.4842 75 27.5099C75.1252 27.021 74.7539 25.8902 75 24.5392L76 22.5587C76.2068 22.5715 76.6073 22.5201 77 22.5587C77.3922 22.6016 77.8058 22.5458 78 22.5587C78.3966 21.9325 78.6165 21.0842 79 20.5782H77C76.1505 20.5653 76.1942 20.7283 76 20.5782ZM72 28.5002C71.918 28.5002 72 28.5945 72 28.5002C71.9699 28.5002 72 28.4187 72 28.5002C72.0301 28.5002 71.9743 28.4615 72 28.5002C72.1252 28.6374 72.1252 28.5002 72 28.5002Z" fill="#6CA4F8"/>
<path d="M77 19.578C77.0422 19.5903 76.9078 19.5636 77 19.578C77.2131 19.6111 77.5917 19.5718 78 19.578V19.578V19.578H80H81L80 20.5659C79.6296 21.0532 79.3869 21.9323 79 22.5416V22.5416H78C77.7927 22.5279 77.3961 22.5848 77 22.5416C76.9699 22.5387 77.0286 22.5445 77 22.5416C76.9515 22.5369 77.0451 22.546 77 22.5416V24.5174C76.8374 25.4084 76.1131 25.9627 76 26.4932C76.4209 26.4683 76.7976 26.5169 77 26.4932H78V27.4811V27.4811C78.1228 27.5377 78.8932 27.3697 79 27.4811C79.2078 27.6981 79 28.2116 79 28.469C79 28.5906 79.0316 29.3207 79 29.4569C78.9806 29.5389 78.3529 29.2895 78 29.4569C77.9374 29.4866 78.018 29.452 78 29.4569C77.968 29.4657 78.0184 29.4535 78 29.4569C77.9621 29.4639 78.0301 29.4535 78 29.4569C77.9379 29.4639 78.0854 29.4513 78 29.4569C77.8267 29.4683 77.3107 29.445 77 29.4569C76.3767 29.4807 75.1995 29.4291 74 29.4569H71H70V29.4569V28.469V28.469V28.469V27.4811C70.0073 27.3462 69.9752 27.6002 70 27.4811C70.0126 27.4193 69.9689 27.5574 70 27.4811C70.0277 27.4118 69.8908 26.6015 70 26.4932M77 19.578L70 27.4811V27.4811H71V27.4811V27.4811C71.016 27.3784 70.9709 27.5098 71 27.4811C71.0476 27.4341 70.6981 27.5239 71 27.4811M77 19.578C76.7665 19.3876 76.2641 19.6322 76 19.578C75.718 19.52 75.3587 19.578 75 19.578C74.8461 19.578 75.1393 19.5552 75 19.578C74.9301 19.5894 75.0888 19.5443 75 19.578C74.9617 19.5926 75.0544 19.5461 75 19.578C74.9408 19.5884 74.1296 19.5646 74 19.578C73.6893 19.6099 73.6272 19.5504 73 19.578M77 19.578L73 20.5659M70 26.4932L71 27.4811M70 26.4932C70.1155 26.3787 69.9432 26.5161 70 26.4932C70.0714 26.4643 70.9379 26.5087 71 26.4932C71.1233 26.4624 70.8417 26.5157 71 26.4932M71 27.4811V26.4932C71.0019 26.4929 70.9981 26.4935 71 26.4932M71 27.4811V26.4932C70.9985 26.4934 71.0015 26.493 71 26.4932M71 27.4811C71.0816 27.4683 71.8359 27.4811 72 27.4811C72.2845 27.4811 71.8364 27.4255 72 27.4811C72.1641 27.5367 72.5214 27.4811 73 27.4811C73.5218 27.4811 73.9311 27.5496 74 27.4811C74.0432 27.4383 74.7243 26.2032 75 24.5174C75.2718 22.8316 75 21.7463 75 21.5538C75 21.5238 74.6296 21.665 74 21.5538C73.5728 21.4853 73.1252 21.6136 73 21.5538C72.8748 21.4896 73.1379 20.7841 73 20.5659M73 19.578C73.0005 19.578 72.9995 19.578 73 19.578V19.578V19.578V20.5659M73 19.578C71.9388 19.621 70.7597 19.5078 70 19.578V19.578V19.578H69H67L69 20.5659L70 21.5538V21.5538C70.333 21.6845 70.5675 21.5538 71 21.5538C71.2903 21.5538 70.8024 21.568 71 21.5538M73 19.578L71 21.5538M73 20.5659C74.1257 20.512 74.935 19.6546 75 19.578M73 20.5659L75 19.578M71 26.4932C71.134 26.4727 71.8194 26.4932 72 26.4932C72.3131 26.4932 72.7223 26.399 73 26.4932C72.9995 26.493 72.9981 26.4928 73 26.4932C73.0097 26.4954 72.8762 26.4829 73 26.4932C73.133 26.5043 72.7718 26.4932 73 26.4932C73.1087 26.4932 73.9204 26.496 74 26.4932C74.0112 26.4365 73.9879 26.562 74 26.4932C74.0777 26.0679 73.8621 25.3594 74 24.5174C74.1354 23.6759 73.9325 23.0052 74 22.5416C74.0102 22.4719 73.9917 22.6023 74 22.5416C73.9184 22.5267 74.0995 22.5593 74 22.5416C73.5942 22.4764 73.2359 22.6547 73 22.5416V22.5416V22.5416C72.7024 22.3889 72.1592 21.8043 72 21.5538V21.5538H71M71 21.5538H72H73V21.5538V20.5659M71 21.5538C71 21.5537 70.9995 21.5538 71 21.5538V20.5659C71.215 20.5527 71.765 20.5776 72 20.5659L71 21.5538ZM73 20.5659V20.5659C72.9461 20.5682 73.0534 20.5635 73 20.5659V21.5538V20.5659ZM78 22.5416C77.8058 22.5288 78.3922 21.5966 78 21.5538C77.9665 21.5505 77.032 21.5569 77 21.5538C76.6558 21.5199 77.1893 21.5655 77 21.5538L76 24.5174C75.8136 25.5383 76.117 25.9652 76 26.4932L78 22.5416ZM78 22.5416C78.2223 22.1917 78.7816 21.8661 79 21.5538M78 22.5416L79 21.5538M79 21.5538H80V20.5659L79 19.578C78.901 19.7081 79.1 20.4284 79 20.5659H78C77.1505 20.5531 77.1942 20.7156 77 20.5659L79 21.5538ZM75 19.578C75.0519 19.5223 74.7243 19.578 75 19.578C75.6597 19.578 76.7932 19.4025 77 19.578H75ZM77 19.578C76.9995 19.5776 77 19.578 77 19.578M71 28.469V29.4569V29.4569V29.4569H73C73.1515 29.5437 72.8748 29.4569 73 29.4569C73.0748 29.4569 73.8228 29.5539 74 29.4569C74.017 29.4476 73.9825 29.4682 74 29.4569V29.4569C76.3976 29.4013 77.9311 28.5075 78 28.469C78.0563 28.4433 78 28.6744 78 28.469C78 28.3022 78.1626 28.5364 78 28.469H71ZM73 28.469C72.9985 28.4618 73.0005 28.477 73 28.469V28.469V28.469V28.469V28.469C73.0544 28.5523 73.0976 28.469 73 28.469C72.966 28.469 73.0204 28.4853 73 28.469C72.9801 28.4527 73.0058 28.5016 73 28.469Z" stroke="white"/>
</g>
<g filter="url(#filter8_d_1_6516)">
<path d="M83.1589 19.5733C83.6058 19.5733 84.1457 19.5002 84.1457 19.5733C84.1457 19.6463 83.8736 20.6208 83.1589 22.5513C82.4437 24.486 81.2745 26.3414 81.1854 26.522C81.0958 26.7026 81.3468 26.522 81.1854 26.522C81.0407 26.522 81.2917 26.6118 81.1854 27.5147C81.1514 27.8027 81.1854 28.1118 81.1854 28.5073C81.1854 29.0146 80.9344 29.5 81.1854 29.5C81.309 29.5 81.8019 27.5892 83.1589 24.5366C84.4824 21.54 86.0124 19.7195 86.1192 19.5733C85.5999 19.5733 86.1743 19.5174 86.1192 19.5733H87.1059C87.7148 19.5733 88.7216 19.7711 89.0795 19.5733V18.5806L92.0397 19.5733C93.2909 19.7539 93.7115 19.5733 94.0132 19.5733C94.4774 19.5733 95 19.7539 95 19.5733C95 19.483 94.7112 18.6709 94.0132 18.5806C93.4217 18.5247 92.4819 18.7611 92.0397 18.5806C91.8055 18.4559 91.4065 18.7267 90.0662 18.5806C89.3515 18.5247 88.5228 17.6352 88.0927 17.5879C87.663 17.5449 87.3354 17.6223 87.1059 17.5879C86.8717 17.5535 87.1783 17.6309 87.1059 17.5879C87.0336 17.5449 86.1192 17.6438 86.1192 17.5879C86.1192 17.3901 86.6001 17.5879 86.1192 17.5879C85.8509 17.5879 85.3283 17.4804 85.1324 17.5879C84.971 17.6954 84.5203 17.5879 84.1457 17.5879C83.933 17.5879 83.3721 17.6782 82.1722 17.5879C80.4573 17.4632 79.301 17.6782 79.2119 17.5879C79.1055 17.4804 79.3522 17.5879 79.2119 17.5879C78.9609 17.5879 79.2119 17.3901 79.2119 17.5879C79.2291 17.876 78.7266 18.1464 79.2119 18.5806C79.3905 18.744 80.3002 18.4215 81.1854 18.5806C82.0701 18.7439 82.4825 19.5561 83.1589 19.5733ZM86.1192 18.5806C86.1192 18.5247 86.1743 18.5806 86.1192 18.5806C86.1192 18.6365 86.1743 18.5806 86.1192 18.5806C86.1192 18.6365 86.0636 18.5806 86.1192 18.5806C86.1192 18.5247 86.0636 18.5806 86.1192 18.5806ZM84.1457 20.5659C84.1457 20.51 84.1969 20.5659 84.1457 20.5659C84.1457 20.6218 84.2012 20.5659 84.1457 20.5659C84.1457 20.6218 84.0906 20.5659 84.1457 20.5659C84.1457 20.51 84.0906 20.5659 84.1457 20.5659Z" fill="#6CA4F8"/>
<path d="M82.0791 19.5539C81.6523 19.5065 80.5779 19.6414 80.1011 19.5539C79.6446 19.4723 79.4165 19.6462 79.1121 19.5539C78.8437 19.4724 79.332 18.7627 79.1121 18.5646C78.8461 18.3276 78.2921 17.8167 78.1231 17.5752C77.9584 17.3395 78.1423 17.903 78.1231 17.5752V17.5752V17.5752C78.1231 17.3176 77.8461 16.8048 78.1231 16.5859C78.368 16.3926 78.9119 16.5859 79.1121 16.5859C79.3925 16.5859 78.9042 16.4297 79.1121 16.5859C79.2091 16.6053 79.8851 16.5598 80.1011 16.5859C80.5361 16.6384 81.2236 16.5241 82.0791 16.5859V16.5859C83.2952 16.6769 83.8781 16.5859 84.0571 16.5859C84.2117 16.5859 83.9832 16.6009 84.0571 16.5859C84.1047 16.5763 84.0514 16.5884 84.0571 16.5859V16.5859V16.5859C84.3759 16.4118 84.677 16.5859 85.0462 16.5859C85.315 16.5859 85.7831 16.4831 86.0352 16.5859C86.1681 16.64 86.895 16.4286 87.0242 16.5859C87.0592 16.6283 86.9982 16.5395 87.0242 16.5859C87.0438 16.5892 87.0011 16.5825 87.0242 16.5859V16.5859C87.2416 16.6183 87.5931 16.5441 88.0132 16.5859V16.5859V16.5859C88.4309 16.6316 89.2734 17.5195 89.9912 17.5752V17.5752V17.5752C90.67 17.6488 90.5654 17.5035 90.9802 17.5752C91.1876 17.611 91.8165 17.5362 91.9692 17.5752C92.0955 17.6075 91.842 17.5143 91.9692 17.5752C92.3273 17.7173 92.4282 17.5255 92.9582 17.5752V17.5752H93.9472C94.3044 17.6211 93.7278 18.5081 93.9472 18.5646C94.0509 18.5913 94.8205 18.505 94.9362 18.5646C94.9929 18.5937 94.8493 18.475 94.9362 18.5646C95.026 18.6566 94.9362 18.304 94.9362 18.5646C94.9362 18.7808 95.0797 19.3887 94.9362 19.5539C94.8051 19.7052 95.0629 19.505 94.9362 19.5539C94.6933 19.6475 94.2055 19.5539 93.9472 19.5539C93.5809 19.5539 92.2136 19.7309 90.9802 19.5539V19.5539H89.0022V19.5539C88.5005 19.8264 87.6958 19.5539 87.0242 19.5539H86.0352C85.8849 19.5539 86.1331 19.5499 86.0352 19.5539C86.0208 19.5866 86.052 20.5053 86.0352 20.5432C85.9295 20.7861 85.2228 21.1179 85.0462 21.5326V21.5326C84.6525 22.4549 84.7226 23.0022 84.0571 24.5005V24.5005C83.3764 26.0237 82.457 27.6859 82.0791 28.4579C81.8914 28.8418 82.1992 29.2367 82.0791 29.4472C82.0206 29.5496 81.1497 29.3663 81.0901 29.4472C81.0623 29.4853 81.1487 29.392 81.0901 29.4472C81.0608 29.4748 81.1588 29.407 81.0901 29.4472C81.0282 29.4836 81.2726 29.4472 81.0901 29.4472C80.9029 29.4472 80.2797 29.566 80.1011 29.4472C79.9264 29.3313 80.1751 29.5956 80.1011 29.4472C79.9643 29.1716 80.1011 28.7452 80.1011 28.4579C80.1011 28.0385 80.0632 27.7864 80.1011 27.4685M82.0791 19.5539L80.1011 27.4685M82.0791 19.5539V19.5539H83.0681C82.8905 20.0474 82.4258 20.6028 82.0791 21.5326V21.5326C81.7191 22.5015 81.3273 23.8352 81.0901 24.5005V24.5005C80.9812 24.8061 81.1597 25.2994 81.0901 25.4899C81.0556 25.5859 81.1089 25.4406 81.0901 25.4899C80.8006 25.5776 80.1487 25.4107 80.1011 25.4899C80.0186 25.6285 80.1386 26.3452 80.1011 26.4792C80.0238 26.7584 80.1554 27.01 80.1011 27.4685M81.0901 25.4899C81.0901 25.4899 81.0897 25.4904 81.0901 25.4899M83.0681 19.5539C83.0681 19.5539 83.072 19.5548 83.0681 19.5539C83.0725 19.5546 83.0681 19.5539 83.0681 19.5539ZM80.1011 28.4579C80.1011 28.4579 80.0997 28.4594 80.1011 28.4579V28.4579C80.1002 28.4594 80.1011 28.4579 80.1011 28.4579ZM86.0352 18.5646C86.0078 18.5651 86.0616 18.5639 86.0352 18.5646C86.0073 18.5653 86.0616 18.5636 86.0352 18.5646C86.0352 18.5619 86.0352 18.5673 86.0352 18.5646C86.0352 18.5088 85.9795 18.5646 86.0352 18.5646C86.0904 18.5646 86.0352 18.5088 86.0352 18.5646C86.0352 18.5659 86.0352 18.5633 86.0352 18.5646ZM84.0571 20.5432C84.0643 20.5237 84.0499 20.5623 84.0571 20.5432C84.0672 20.5159 84.0475 20.5697 84.0571 20.5432C84.0615 20.5428 84.0523 20.5432 84.0571 20.5432C84.0893 20.5432 84.0437 20.5221 84.0571 20.5432C84.0499 20.5599 84.0643 20.5264 84.0571 20.5432C84.0461 20.5699 84.0691 20.516 84.0571 20.5432C84.0533 20.5436 84.0619 20.5432 84.0571 20.5432C84.0274 20.5432 84.0701 20.5591 84.0571 20.5432Z" stroke="white"/>
</g>
<g filter="url(#filter9_d_1_6516)">
<path d="M95.9993 22.6528C95.44 22.6528 95.1954 22.5969 95.0017 22.6528C94.8123 22.7086 94.3658 23.3568 94.004 23.6447C92.9758 24.4567 92.0087 24.4906 92.0087 24.6367C91.9699 24.6195 92.0087 24.6925 92.0087 24.6367C92.138 24.5078 92.1549 24.7269 92.0087 24.6367C91.9011 24.7441 92.0818 25.6286 92.0087 25.6286C91.8842 25.6286 92.0087 25.1394 92.0087 24.6367C92.0087 24.2758 91.9912 23.881 92.0087 23.6447C92.043 23.1378 92.0087 22.7602 92.0087 22.6528C92.0087 22.309 92.1506 22.6528 92.0087 22.6528C91.8668 22.6528 91.4454 22.3821 91.011 22.6528C90.6497 22.8676 90.0777 22.5324 90.0133 22.6528C89.9489 22.7688 90.0133 23.1765 90.0133 23.6447C90.0133 24.0615 89.9489 24.4563 90.0133 24.6367C90.0777 24.8172 90.7742 25.3752 91.011 25.6286C91.2991 25.9724 91.7718 25.6286 92.0087 25.6286C92.1898 25.6115 92.0774 26.4788 92.0087 26.6206C91.9743 26.6937 85.6153 32.3904 83.0296 35.5482C80.4831 38.6502 80.0366 40.4006 80.0366 40.508C80.0197 40.6326 79.9635 41.5 80.0366 41.5C80.1998 41.5 80.4192 40.2551 81.0343 39.5161C81.4304 39.0306 81.7438 38.7519 82.0319 38.5241C82.3206 38.2964 82.5046 38.7776 83.0296 38.5241L84.0273 37.5322L93.0063 27.6126C95.6608 24.3989 96.9583 22.743 96.997 22.6528C97.0314 22.5626 96.7737 22.6528 95.9993 22.6528Z" fill="#6CA4F8"/>
<path d="M82.0319 35.4869C83.3247 33.8928 86.1897 31.5814 87.9785 29.5179C88.7565 28.6207 89.3959 27.1815 89.9607 26.5334C90.0464 26.4352 89.8823 26.6232 89.9607 26.5334C90.0834 26.3927 89.8583 26.6509 89.9607 26.5334C89.7697 26.3962 90.0988 25.7031 89.9607 25.5386C89.7057 25.261 89.0803 24.8558 88.9696 24.5438C88.8609 24.2358 88.9696 23.9713 88.9696 23.5489C88.9696 23.3025 88.9504 22.7374 88.9696 22.5541C88.985 22.4039 88.8633 22.7502 88.9696 22.5541C89.0736 22.3604 89.839 21.6567 89.9607 21.5593C90.0988 21.449 89.7693 21.6744 89.9607 21.5593C90.1859 21.4179 90.7729 21.6441 90.9518 21.5593C91.1 21.4891 91.6961 21.5593 91.9429 21.5593C92.1378 21.5593 91.7837 21.4306 91.9429 21.5593C92.0906 21.6787 91.8948 21.443 91.9429 21.5593C92.0339 21.7784 91.9429 22.3522 91.9429 22.5541C91.9429 22.6472 91.9598 22.2979 91.9429 22.5541C92.1416 22.3863 92.6771 22.7589 92.934 22.5541C93.2934 22.2653 93.5889 21.6595 93.9252 21.5593V21.5593C94.2321 21.4699 95.3675 21.5593 95.9074 21.5593V21.5593V21.5593C96.1614 21.5638 95.7409 21.5393 95.9074 21.5593C96.0103 21.5717 96.7638 21.5051 96.8985 21.5593C96.9581 21.5833 96.7767 21.4146 96.8985 21.5593C97.062 21.7535 97.0024 22.2794 96.8985 22.5541V22.5541V22.5541C96.873 22.6139 96.9052 22.5433 96.8985 22.5541V22.5541C96.8864 22.573 96.9076 22.5405 96.8985 22.5541C96.8787 22.5818 96.923 22.5214 96.8985 22.5541C96.8484 22.6205 96.9856 23.4386 96.8985 23.5489C96.7238 23.7706 96.2422 24.1293 95.9074 24.5438C95.2372 25.3734 94.2528 25.9166 92.934 27.5283V27.5283V27.5283L85.0052 37.4766H84.0141V37.4766L83.023 38.4714V38.4714V38.4714C82.5198 38.7169 82.2575 39.2865 82.0319 39.4663C81.8048 39.6475 81.4194 39.9921 81.0408 40.4611V40.4611V40.4611C80.7295 40.8389 80.2724 40.2469 80.0497 40.4611C79.9395 40.567 80.1666 41.3769 80.0497 41.4559C79.9636 41.5143 79.3299 41.4559 79.0586 41.4559C78.9325 41.4559 79.2116 41.5551 79.0586 41.4559C78.9037 41.3556 79.111 40.5857 79.0586 40.4611C78.9705 40.2517 79.0451 40.5607 79.0586 40.4611C79.0701 40.3641 79.0509 40.4814 79.0586 40.4611V40.4611C79.0754 40.4183 79.047 40.4834 79.0586 40.4611C79.0831 40.4153 79.0345 40.4984 79.0586 40.4611C79.1091 40.3839 78.9773 39.5771 79.0586 39.4663C79.2236 39.2422 79.7321 38.8756 80.0497 38.4714C80.6862 37.6613 80.7661 37.0431 82.0319 35.4869ZM82.0319 35.4869C82.0319 35.4869 82.0319 35.487 82.0319 35.4869ZM82.0319 35.4869H83.023H82.0319C82.0319 35.4868 82.0314 35.4871 82.0319 35.4869ZM79.0586 40.4611C79.0586 40.461 79.0576 40.4616 79.0586 40.4611" stroke="white"/>
</g>
<defs>
<filter id="filter0_d_1_6516" x="0" y="1.5" width="22.5" height="29.7485" filterUnits="userSpaceOnUse" color-interpolation-filters="sRGB">
<feFlood flood-opacity="0" result="BackgroundImageFix"/>
<feColorMatrix in="SourceAlpha" type="matrix" values="0 0 0 0 0 0 0 0 0 0 0 0 0 0 0 0 0 0 127 0" result="hardAlpha"/>
<feOffset dy="1"/>
<feComposite in2="hardAlpha" operator="out"/>
<feColorMatrix type="matrix" values="0 0 0 0 0.2 0 0 0 0 0.2 0 0 0 0 0.2 0 0 0 1 0"/>
<feBlend mode="normal" in2="BackgroundImageFix" result="effect1_dropShadow_1_6516"/>
<feBlend mode="normal" in="SourceGraphic" in2="effect1_dropShadow_1_6516" result="shape"/>
</filter>
<filter id="filter1_d_1_6516" x="16.5" y="15" width="14" height="16" filterUnits="userSpaceOnUse" color-interpolation-filters="sRGB">
<feFlood flood-opacity="0" result="BackgroundImageFix"/>
<feColorMatrix in="SourceAlpha" type="matrix" values="0 0 0 0 0 0 0 0 0 0 0 0 0 0 0 0 0 0 127 0" result="hardAlpha"/>
<feOffset dy="1"/>
<feComposite in2="hardAlpha" operator="out"/>
<feColorMatrix type="matrix" values="0 0 0 0 0.2 0 0 0 0 0.2 0 0 0 0 0.2 0 0 0 1 0"/>
<feBlend mode="normal" in2="BackgroundImageFix" result="effect1_dropShadow_1_6516"/>
<feBlend mode="normal" in="SourceGraphic" in2="effect1_dropShadow_1_6516" result="shape"/>
</filter>
<filter id="filter2_d_1_6516" x="23.5" y="19" width="12.1338" height="21" filterUnits="userSpaceOnUse" color-interpolation-filters="sRGB">
<feFlood flood-opacity="0" result="BackgroundImageFix"/>
<feColorMatrix in="SourceAlpha" type="matrix" values="0 0 0 0 0 0 0 0 0 0 0 0 0 0 0 0 0 0 127 0" result="hardAlpha"/>
<feOffset dy="1"/>
<feComposite in2="hardAlpha" operator="out"/>
<feColorMatrix type="matrix" values="0 0 0 0 0.2 0 0 0 0 0.2 0 0 0 0 0.2 0 0 0 1 0"/>
<feBlend mode="normal" in2="BackgroundImageFix" result="effect1_dropShadow_1_6516"/>
<feBlend mode="normal" in="SourceGraphic" in2="effect1_dropShadow_1_6516" result="shape"/>
</filter>
<filter id="filter3_d_1_6516" x="36.5" y="19" width="12.1338" height="21" filterUnits="userSpaceOnUse" color-interpolation-filters="sRGB">
<feFlood flood-opacity="0" result="BackgroundImageFix"/>
<feColorMatrix in="SourceAlpha" type="matrix" values="0 0 0 0 0 0 0 0 0 0 0 0 0 0 0 0 0 0 127 0" result="hardAlpha"/>
<feOffset dy="1"/>
<feComposite in2="hardAlpha" operator="out"/>
<feColorMatrix type="matrix" values="0 0 0 0 0.2 0 0 0 0 0.2 0 0 0 0 0.2 0 0 0 1 0"/>
<feBlend mode="normal" in2="BackgroundImageFix" result="effect1_dropShadow_1_6516"/>
<feBlend mode="normal" in="SourceGraphic" in2="effect1_dropShadow_1_6516" result="shape"/>
</filter>
<filter id="filter4_d_1_6516" x="30.5" y="13" width="16" height="9" filterUnits="userSpaceOnUse" color-interpolation-filters="sRGB">
<feFlood flood-opacity="0" result="BackgroundImageFix"/>
<feColorMatrix in="SourceAlpha" type="matrix" values="0 0 0 0 0 0 0 0 0 0 0 0 0 0 0 0 0 0 127 0" result="hardAlpha"/>
<feOffset dy="1"/>
<feComposite in2="hardAlpha" operator="out"/>
<feColorMatrix type="matrix" values="0 0 0 0 0.2 0 0 0 0 0.2 0 0 0 0 0.2 0 0 0 1 0"/>
<feBlend mode="normal" in2="BackgroundImageFix" result="effect1_dropShadow_1_6516"/>
<feBlend mode="normal" in="SourceGraphic" in2="effect1_dropShadow_1_6516" result="shape"/>
</filter>
<filter id="filter5_d_1_6516" x="43.5" y="13" width="16" height="9" filterUnits="userSpaceOnUse" color-interpolation-filters="sRGB">
<feFlood flood-opacity="0" result="BackgroundImageFix"/>
<feColorMatrix in="SourceAlpha" type="matrix" values="0 0 0 0 0 0 0 0 0 0 0 0 0 0 0 0 0 0 127 0" result="hardAlpha"/>
<feOffset dy="1"/>
<feComposite in2="hardAlpha" operator="out"/>
<feColorMatrix type="matrix" values="0 0 0 0 0.2 0 0 0 0 0.2 0 0 0 0 0.2 0 0 0 1 0"/>
<feBlend mode="normal" in2="BackgroundImageFix" result="effect1_dropShadow_1_6516"/>
<feBlend mode="normal" in="SourceGraphic" in2="effect1_dropShadow_1_6516" result="shape"/>
</filter>
<filter id="filter6_d_1_6516" x="46.5" y="20" width="20" height="12" filterUnits="userSpaceOnUse" color-interpolation-filters="sRGB">
<feFlood flood-opacity="0" result="BackgroundImageFix"/>
<feColorMatrix in="SourceAlpha" type="matrix" values="0 0 0 0 0 0 0 0 0 0 0 0 0 0 0 0 0 0 127 0" result="hardAlpha"/>
<feOffset dy="1"/>
<feComposite in2="hardAlpha" operator="out"/>
<feColorMatrix type="matrix" values="0 0 0 0 0.2 0 0 0 0 0.2 0 0 0 0 0.2 0 0 0 1 0"/>
<feBlend mode="normal" in2="BackgroundImageFix" result="effect1_dropShadow_1_6516"/>
<feBlend mode="normal" in="SourceGraphic" in2="effect1_dropShadow_1_6516" result="shape"/>
</filter>
<filter id="filter7_d_1_6516" x="66.7783" y="18.8223" width="15.4395" height="12.1777" filterUnits="userSpaceOnUse" color-interpolation-filters="sRGB">
<feFlood flood-opacity="0" result="BackgroundImageFix"/>
<feColorMatrix in="SourceAlpha" type="matrix" values="0 0 0 0 0 0 0 0 0 0 0 0 0 0 0 0 0 0 127 0" result="hardAlpha"/>
<feOffset dy="1"/>
<feComposite in2="hardAlpha" operator="out"/>
<feColorMatrix type="matrix" values="0 0 0 0 0.2 0 0 0 0 0.2 0 0 0 0 0.2 0 0 0 1 0"/>
<feBlend mode="normal" in2="BackgroundImageFix" result="effect1_dropShadow_1_6516"/>
<feBlend mode="normal" in="SourceGraphic" in2="effect1_dropShadow_1_6516" result="shape"/>
</filter>
<filter id="filter8_d_1_6516" x="77.5" y="16" width="18" height="15" filterUnits="userSpaceOnUse" color-interpolation-filters="sRGB">
<feFlood flood-opacity="0" result="BackgroundImageFix"/>
<feColorMatrix in="SourceAlpha" type="matrix" values="0 0 0 0 0 0 0 0 0 0 0 0 0 0 0 0 0 0 127 0" result="hardAlpha"/>
<feOffset dy="1"/>
<feComposite in2="hardAlpha" operator="out"/>
<feColorMatrix type="matrix" values="0 0 0 0 0.2 0 0 0 0 0.2 0 0 0 0 0.2 0 0 0 1 0"/>
<feBlend mode="normal" in2="BackgroundImageFix" result="effect1_dropShadow_1_6516"/>
<feBlend mode="normal" in="SourceGraphic" in2="effect1_dropShadow_1_6516" result="shape"/>
</filter>
<filter id="filter9_d_1_6516" x="78.5" y="21" width="19" height="22" filterUnits="userSpaceOnUse" color-interpolation-filters="sRGB">
<feFlood flood-opacity="0" result="BackgroundImageFix"/>
<feColorMatrix in="SourceAlpha" type="matrix" values="0 0 0 0 0 0 0 0 0 0 0 0 0 0 0 0 0 0 127 0" result="hardAlpha"/>
<feOffset dy="1"/>
<feComposite in2="hardAlpha" operator="out"/>
<feColorMatrix type="matrix" values="0 0 0 0 0.2 0 0 0 0 0.2 0 0 0 0 0.2 0 0 0 1 0"/>
<feBlend mode="normal" in2="BackgroundImageFix" result="effect1_dropShadow_1_6516"/>
<feBlend mode="normal" in="SourceGraphic" in2="effect1_dropShadow_1_6516" result="shape"/>
</filter>
</defs>
</svg>
