<svg width="7" height="13" viewBox="0 0 7 13" fill="none" xmlns="http://www.w3.org/2000/svg">
<path d="M7 6.55309C7 6.3774 6.15559 5.69779 6.02265 5.57131L1.13591 0.662405C1.01 0.542944 0.340437 0.662405 0.158562 0.662405C-0.198203 0.662405 0.158562 0.296994 0.158562 0.662405C0.158562 0.838082 0.0466367 1.52473 0.158562 1.64418L5.0453 6.55309L0.158562 11.462C0.0466367 11.5814 0.158562 11.2793 0.158562 11.462C0.158562 11.8274 -0.198203 12.4438 0.158562 12.4438C0.340437 12.4438 1.01 12.5703 1.13591 12.4438L6.02265 6.55309C6.15559 6.4196 7 6.72872 7 6.55309Z" fill="#0C080E"/>
</svg>
